<mxfile host="app.diagrams.net" agent="Mozilla/5.0 (X11; Linux x86_64; rv:109.0) Gecko/20100101 Firefox/115.0" version="24.7.12">
  <diagram name="Página-1" id="7_aAKKSUCXnnZroq8-cb">
    <mxGraphModel dx="1222" dy="1129" grid="1" gridSize="10" guides="1" tooltips="1" connect="1" arrows="1" fold="1" page="1" pageScale="1" pageWidth="827" pageHeight="1169" math="0" shadow="0">
      <root>
        <mxCell id="0" />
        <mxCell id="1" parent="0" />
        <mxCell id="oOIH-ytNlQx51OnZuf94-1" style="edgeStyle=orthogonalEdgeStyle;rounded=0;orthogonalLoop=1;jettySize=auto;html=1;exitX=1;exitY=0.5;exitDx=0;exitDy=0;startArrow=none;startFill=0;" parent="1" source="oOIH-ytNlQx51OnZuf94-3" target="oOIH-ytNlQx51OnZuf94-25" edge="1">
          <mxGeometry relative="1" as="geometry">
            <Array as="points">
              <mxPoint x="1950" y="370" />
              <mxPoint x="1950" y="370" />
            </Array>
          </mxGeometry>
        </mxCell>
        <mxCell id="oOIH-ytNlQx51OnZuf94-2" style="edgeStyle=orthogonalEdgeStyle;rounded=0;orthogonalLoop=1;jettySize=auto;html=1;exitX=0.5;exitY=1;exitDx=0;exitDy=0;startArrow=diamondThin;startFill=0;" parent="1" source="oOIH-ytNlQx51OnZuf94-3" target="oOIH-ytNlQx51OnZuf94-59" edge="1">
          <mxGeometry relative="1" as="geometry">
            <Array as="points">
              <mxPoint x="1785" y="590" />
              <mxPoint x="1710" y="590" />
            </Array>
          </mxGeometry>
        </mxCell>
        <mxCell id="oOIH-ytNlQx51OnZuf94-3" value="Aplicación" style="swimlane;fontStyle=2;align=center;verticalAlign=top;childLayout=stackLayout;horizontal=1;startSize=26;horizontalStack=0;resizeParent=1;resizeLast=0;collapsible=1;marginBottom=0;rounded=0;shadow=0;strokeWidth=1;fontSize=12;" parent="1" vertex="1">
          <mxGeometry x="1670" y="180" width="230" height="340" as="geometry">
            <mxRectangle x="230" y="140" width="160" height="26" as="alternateBounds" />
          </mxGeometry>
        </mxCell>
        <mxCell id="oOIH-ytNlQx51OnZuf94-4" value="- listaUsuarios : static List&lt;Persona&gt;" style="text;align=left;verticalAlign=top;spacingLeft=4;spacingRight=4;overflow=hidden;rotatable=0;points=[[0,0.5],[1,0.5]];portConstraint=eastwest;rounded=0;shadow=0;html=0;fontSize=12;" parent="oOIH-ytNlQx51OnZuf94-3" vertex="1">
          <mxGeometry y="26" width="230" height="26" as="geometry" />
        </mxCell>
        <mxCell id="oOIH-ytNlQx51OnZuf94-5" value="- listaActivosAltos : static List&lt;Persona&gt;" style="text;align=left;verticalAlign=top;spacingLeft=4;spacingRight=4;overflow=hidden;rotatable=0;points=[[0,0.5],[1,0.5]];portConstraint=eastwest;rounded=0;shadow=0;html=0;fontSize=12;" parent="oOIH-ytNlQx51OnZuf94-3" vertex="1">
          <mxGeometry y="52" width="230" height="26" as="geometry" />
        </mxCell>
        <mxCell id="oOIH-ytNlQx51OnZuf94-6" value="- listaAltas : static List&lt;Persona&gt;" style="text;align=left;verticalAlign=top;spacingLeft=4;spacingRight=4;overflow=hidden;rotatable=0;points=[[0,0.5],[1,0.5]];portConstraint=eastwest;rounded=0;shadow=0;html=0;fontSize=12;" parent="oOIH-ytNlQx51OnZuf94-3" vertex="1">
          <mxGeometry y="78" width="230" height="26" as="geometry" />
        </mxCell>
        <mxCell id="oOIH-ytNlQx51OnZuf94-7" value="- listaBajas : static List&lt;Persona&gt;" style="text;align=left;verticalAlign=top;spacingLeft=4;spacingRight=4;overflow=hidden;rotatable=0;points=[[0,0.5],[1,0.5]];portConstraint=eastwest;rounded=0;shadow=0;html=0;fontSize=12;" parent="oOIH-ytNlQx51OnZuf94-3" vertex="1">
          <mxGeometry y="104" width="230" height="26" as="geometry" />
        </mxCell>
        <mxCell id="oOIH-ytNlQx51OnZuf94-8" value="- listaMonedas : static List&lt;Moneda&gt;" style="text;align=left;verticalAlign=top;spacingLeft=4;spacingRight=4;overflow=hidden;rotatable=0;points=[[0,0.5],[1,0.5]];portConstraint=eastwest;rounded=0;shadow=0;html=0;fontSize=12;" parent="oOIH-ytNlQx51OnZuf94-3" vertex="1">
          <mxGeometry y="130" width="230" height="26" as="geometry" />
        </mxCell>
        <mxCell id="oOIH-ytNlQx51OnZuf94-9" value="- listaStocksCripto : static List&lt;Stock&gt;" style="text;align=left;verticalAlign=top;spacingLeft=4;spacingRight=4;overflow=hidden;rotatable=0;points=[[0,0.5],[1,0.5]];portConstraint=eastwest;rounded=0;shadow=0;html=0;fontSize=12;" parent="oOIH-ytNlQx51OnZuf94-3" vertex="1">
          <mxGeometry y="156" width="230" height="26" as="geometry" />
        </mxCell>
        <mxCell id="oOIH-ytNlQx51OnZuf94-10" value="- listaProtocolos : static List &lt;Protocolo&gt;" style="text;align=left;verticalAlign=top;spacingLeft=4;spacingRight=4;overflow=hidden;rotatable=0;points=[[0,0.5],[1,0.5]];portConstraint=eastwest;" parent="oOIH-ytNlQx51OnZuf94-3" vertex="1">
          <mxGeometry y="182" width="230" height="26" as="geometry" />
        </mxCell>
        <mxCell id="oOIH-ytNlQx51OnZuf94-11" value="" style="line;html=1;strokeWidth=1;align=left;verticalAlign=middle;spacingTop=-1;spacingLeft=3;spacingRight=3;rotatable=0;labelPosition=right;points=[];portConstraint=eastwest;fontSize=12;" parent="oOIH-ytNlQx51OnZuf94-3" vertex="1">
          <mxGeometry y="208" width="230" height="8" as="geometry" />
        </mxCell>
        <mxCell id="oOIH-ytNlQx51OnZuf94-12" value="+ registrarse()   " style="text;align=left;verticalAlign=top;spacingLeft=4;spacingRight=4;overflow=hidden;rotatable=0;points=[[0,0.5],[1,0.5]];portConstraint=eastwest;rounded=0;shadow=0;html=0;fontSize=12;" parent="oOIH-ytNlQx51OnZuf94-3" vertex="1">
          <mxGeometry y="216" width="230" height="26" as="geometry" />
        </mxCell>
        <mxCell id="oOIH-ytNlQx51OnZuf94-13" value="+ verificarIdentidad()" style="text;align=left;verticalAlign=top;spacingLeft=4;spacingRight=4;overflow=hidden;rotatable=0;points=[[0,0.5],[1,0.5]];portConstraint=eastwest;rounded=0;shadow=0;html=0;fontSize=12;" parent="oOIH-ytNlQx51OnZuf94-3" vertex="1">
          <mxGeometry y="242" width="230" height="26" as="geometry" />
        </mxCell>
        <mxCell id="oOIH-ytNlQx51OnZuf94-14" value="+ iniciarSesion()" style="text;align=left;verticalAlign=top;spacingLeft=4;spacingRight=4;overflow=hidden;rotatable=0;points=[[0,0.5],[1,0.5]];portConstraint=eastwest;fontSize=12;" parent="oOIH-ytNlQx51OnZuf94-3" vertex="1">
          <mxGeometry y="268" width="230" height="24" as="geometry" />
        </mxCell>
        <mxCell id="oOIH-ytNlQx51OnZuf94-15" value="+ cerrarSesion()" style="text;align=left;verticalAlign=top;spacingLeft=4;spacingRight=4;overflow=hidden;rotatable=0;points=[[0,0.5],[1,0.5]];portConstraint=eastwest;fontSize=12;" parent="oOIH-ytNlQx51OnZuf94-3" vertex="1">
          <mxGeometry y="292" width="230" height="24" as="geometry" />
        </mxCell>
        <mxCell id="oOIH-ytNlQx51OnZuf94-16" value="+ darseDeBaja()" style="text;align=left;verticalAlign=top;spacingLeft=4;spacingRight=4;overflow=hidden;rotatable=0;points=[[0,0.5],[1,0.5]];portConstraint=eastwest;fontSize=12;" parent="oOIH-ytNlQx51OnZuf94-3" vertex="1">
          <mxGeometry y="316" width="230" height="24" as="geometry" />
        </mxCell>
        <mxCell id="oOIH-ytNlQx51OnZuf94-17" style="edgeStyle=orthogonalEdgeStyle;rounded=0;orthogonalLoop=1;jettySize=auto;html=1;startArrow=diamondThin;startFill=0;" parent="1" source="oOIH-ytNlQx51OnZuf94-20" target="oOIH-ytNlQx51OnZuf94-59" edge="1">
          <mxGeometry relative="1" as="geometry">
            <Array as="points">
              <mxPoint x="1650" y="590" />
            </Array>
          </mxGeometry>
        </mxCell>
        <mxCell id="oOIH-ytNlQx51OnZuf94-18" value="1" style="edgeLabel;html=1;align=center;verticalAlign=middle;resizable=0;points=[];" parent="oOIH-ytNlQx51OnZuf94-17" vertex="1" connectable="0">
          <mxGeometry x="-0.7183" y="1" relative="1" as="geometry">
            <mxPoint x="-3" y="-7" as="offset" />
          </mxGeometry>
        </mxCell>
        <mxCell id="oOIH-ytNlQx51OnZuf94-19" value="moneda" style="edgeLabel;html=1;align=center;verticalAlign=middle;resizable=0;points=[];" parent="oOIH-ytNlQx51OnZuf94-17" vertex="1" connectable="0">
          <mxGeometry x="-0.0112" y="2" relative="1" as="geometry">
            <mxPoint x="-1" y="-6" as="offset" />
          </mxGeometry>
        </mxCell>
        <mxCell id="oOIH-ytNlQx51OnZuf94-20" value="Stock" style="swimlane;fontStyle=2;align=center;verticalAlign=top;childLayout=stackLayout;horizontal=1;startSize=26;horizontalStack=0;resizeParent=1;resizeLast=0;collapsible=1;marginBottom=0;rounded=0;shadow=0;strokeWidth=1;fontSize=12;" parent="1" vertex="1">
          <mxGeometry x="1408.5" y="554" width="150" height="52" as="geometry">
            <mxRectangle x="230" y="140" width="160" height="26" as="alternateBounds" />
          </mxGeometry>
        </mxCell>
        <mxCell id="oOIH-ytNlQx51OnZuf94-21" value="- cantidadActual : double" style="text;align=left;verticalAlign=top;spacingLeft=4;spacingRight=4;overflow=hidden;rotatable=0;points=[[0,0.5],[1,0.5]];portConstraint=eastwest;rounded=0;shadow=0;html=0;fontSize=12;" parent="oOIH-ytNlQx51OnZuf94-20" vertex="1">
          <mxGeometry y="26" width="150" height="26" as="geometry" />
        </mxCell>
        <mxCell id="oOIH-ytNlQx51OnZuf94-22" style="edgeStyle=orthogonalEdgeStyle;rounded=0;orthogonalLoop=1;jettySize=auto;html=1;" parent="1" edge="1">
          <mxGeometry relative="1" as="geometry">
            <Array as="points">
              <mxPoint x="2132" y="630" />
              <mxPoint x="2132" y="630" />
            </Array>
            <mxPoint x="2131.999999999999" y="520" as="sourcePoint" />
            <mxPoint x="2131.999999999999" y="650" as="targetPoint" />
          </mxGeometry>
        </mxCell>
        <mxCell id="oOIH-ytNlQx51OnZuf94-23" value="1" style="edgeLabel;html=1;align=center;verticalAlign=middle;resizable=0;points=[];" parent="oOIH-ytNlQx51OnZuf94-22" vertex="1" connectable="0">
          <mxGeometry x="-0.7931" relative="1" as="geometry">
            <mxPoint x="4" y="5" as="offset" />
          </mxGeometry>
        </mxCell>
        <mxCell id="oOIH-ytNlQx51OnZuf94-24" value="billeteraCriptos" style="edgeLabel;html=1;align=center;verticalAlign=middle;resizable=0;points=[];" parent="oOIH-ytNlQx51OnZuf94-22" vertex="1" connectable="0">
          <mxGeometry x="0.4368" relative="1" as="geometry">
            <mxPoint x="-40" as="offset" />
          </mxGeometry>
        </mxCell>
        <mxCell id="oOIH-ytNlQx51OnZuf94-25" value="Persona" style="swimlane;fontStyle=2;align=center;verticalAlign=top;childLayout=stackLayout;horizontal=1;startSize=26;horizontalStack=0;resizeParent=1;resizeLast=0;collapsible=1;marginBottom=0;rounded=0;shadow=0;strokeWidth=1;fontSize=12;" parent="1" vertex="1">
          <mxGeometry x="2033" y="280" width="190" height="240" as="geometry">
            <mxRectangle x="230" y="140" width="160" height="26" as="alternateBounds" />
          </mxGeometry>
        </mxCell>
        <mxCell id="oOIH-ytNlQx51OnZuf94-26" value="- nombre : String" style="text;align=left;verticalAlign=top;spacingLeft=4;spacingRight=4;overflow=hidden;rotatable=0;points=[[0,0.5],[1,0.5]];portConstraint=eastwest;rounded=0;shadow=0;html=0;fontSize=12;" parent="oOIH-ytNlQx51OnZuf94-25" vertex="1">
          <mxGeometry y="26" width="190" height="26" as="geometry" />
        </mxCell>
        <mxCell id="oOIH-ytNlQx51OnZuf94-27" value="- apellidos : String" style="text;align=left;verticalAlign=top;spacingLeft=4;spacingRight=4;overflow=hidden;rotatable=0;points=[[0,0.5],[1,0.5]];portConstraint=eastwest;rounded=0;shadow=0;html=0;fontSize=12;" parent="oOIH-ytNlQx51OnZuf94-25" vertex="1">
          <mxGeometry y="52" width="190" height="26" as="geometry" />
        </mxCell>
        <mxCell id="oOIH-ytNlQx51OnZuf94-28" value="- paisNacimiento : String" style="text;align=left;verticalAlign=top;spacingLeft=4;spacingRight=4;overflow=hidden;rotatable=0;points=[[0,0.5],[1,0.5]];portConstraint=eastwest;rounded=0;shadow=0;html=0;fontSize=12;" parent="oOIH-ytNlQx51OnZuf94-25" vertex="1">
          <mxGeometry y="78" width="190" height="26" as="geometry" />
        </mxCell>
        <mxCell id="oOIH-ytNlQx51OnZuf94-29" value="- paisAOperar : String" style="text;align=left;verticalAlign=top;spacingLeft=4;spacingRight=4;overflow=hidden;rotatable=0;points=[[0,0.5],[1,0.5]];portConstraint=eastwest;rounded=0;shadow=0;html=0;fontSize=12;" parent="oOIH-ytNlQx51OnZuf94-25" vertex="1">
          <mxGeometry y="104" width="190" height="26" as="geometry" />
        </mxCell>
        <mxCell id="oOIH-ytNlQx51OnZuf94-30" value="- paisAOperar : String" style="text;align=left;verticalAlign=top;spacingLeft=4;spacingRight=4;overflow=hidden;rotatable=0;points=[[0,0.5],[1,0.5]];portConstraint=eastwest;rounded=0;shadow=0;html=0;fontSize=12;" parent="oOIH-ytNlQx51OnZuf94-25" vertex="1">
          <mxGeometry y="130" width="190" height="26" as="geometry" />
        </mxCell>
        <mxCell id="oOIH-ytNlQx51OnZuf94-31" value="- telefono : String" style="text;align=left;verticalAlign=top;spacingLeft=4;spacingRight=4;overflow=hidden;rotatable=0;points=[[0,0.5],[1,0.5]];portConstraint=eastwest;rounded=0;shadow=0;html=0;fontSize=12;" parent="oOIH-ytNlQx51OnZuf94-25" vertex="1">
          <mxGeometry y="156" width="190" height="26" as="geometry" />
        </mxCell>
        <mxCell id="oOIH-ytNlQx51OnZuf94-32" value="- email : String" style="text;align=left;verticalAlign=top;spacingLeft=4;spacingRight=4;overflow=hidden;rotatable=0;points=[[0,0.5],[1,0.5]];portConstraint=eastwest;rounded=0;shadow=0;html=0;fontSize=12;" parent="oOIH-ytNlQx51OnZuf94-25" vertex="1">
          <mxGeometry y="182" width="190" height="26" as="geometry" />
        </mxCell>
        <mxCell id="oOIH-ytNlQx51OnZuf94-33" value="- fotoDePerfil : BufferedImage" style="text;align=left;verticalAlign=top;spacingLeft=4;spacingRight=4;overflow=hidden;rotatable=0;points=[[0,0.5],[1,0.5]];portConstraint=eastwest;rounded=0;shadow=0;html=0;fontSize=12;" parent="oOIH-ytNlQx51OnZuf94-25" vertex="1">
          <mxGeometry y="208" width="190" height="26" as="geometry" />
        </mxCell>
        <mxCell id="oOIH-ytNlQx51OnZuf94-34" style="edgeStyle=orthogonalEdgeStyle;rounded=0;orthogonalLoop=1;jettySize=auto;html=1;startArrow=diamondThin;startFill=0;" parent="1" source="oOIH-ytNlQx51OnZuf94-37" target="oOIH-ytNlQx51OnZuf94-90" edge="1">
          <mxGeometry relative="1" as="geometry">
            <Array as="points">
              <mxPoint x="2491" y="361" />
              <mxPoint x="2491" y="361" />
            </Array>
          </mxGeometry>
        </mxCell>
        <mxCell id="oOIH-ytNlQx51OnZuf94-35" value="1" style="edgeLabel;html=1;align=center;verticalAlign=middle;resizable=0;points=[];" parent="oOIH-ytNlQx51OnZuf94-34" vertex="1" connectable="0">
          <mxGeometry x="-0.7063" y="1" relative="1" as="geometry">
            <mxPoint x="-1" y="-9" as="offset" />
          </mxGeometry>
        </mxCell>
        <mxCell id="oOIH-ytNlQx51OnZuf94-36" value="seguridad" style="edgeLabel;html=1;align=center;verticalAlign=middle;resizable=0;points=[];" parent="oOIH-ytNlQx51OnZuf94-34" vertex="1" connectable="0">
          <mxGeometry x="0.3604" relative="1" as="geometry">
            <mxPoint y="-9" as="offset" />
          </mxGeometry>
        </mxCell>
        <mxCell id="oOIH-ytNlQx51OnZuf94-37" value="Usuario" style="swimlane;fontStyle=2;align=center;verticalAlign=top;childLayout=stackLayout;horizontal=1;startSize=26;horizontalStack=0;resizeParent=1;resizeLast=0;collapsible=1;marginBottom=0;rounded=0;shadow=0;strokeWidth=1;fontSize=12;" parent="1" vertex="1">
          <mxGeometry x="2364" y="281" width="190" height="140" as="geometry">
            <mxRectangle x="550" y="140" width="160" height="26" as="alternateBounds" />
          </mxGeometry>
        </mxCell>
        <mxCell id="oOIH-ytNlQx51OnZuf94-38" value="- id : String" style="text;align=left;verticalAlign=top;spacingLeft=4;spacingRight=4;overflow=hidden;rotatable=0;points=[[0,0.5],[1,0.5]];portConstraint=eastwest;fontSize=12;" parent="oOIH-ytNlQx51OnZuf94-37" vertex="1">
          <mxGeometry y="26" width="190" height="26" as="geometry" />
        </mxCell>
        <mxCell id="oOIH-ytNlQx51OnZuf94-39" value="- contraseña : String" style="text;align=left;verticalAlign=top;spacingLeft=4;spacingRight=4;overflow=hidden;rotatable=0;points=[[0,0.5],[1,0.5]];portConstraint=eastwest;rounded=0;shadow=0;html=0;fontSize=12;" parent="oOIH-ytNlQx51OnZuf94-37" vertex="1">
          <mxGeometry y="52" width="190" height="26" as="geometry" />
        </mxCell>
        <mxCell id="oOIH-ytNlQx51OnZuf94-40" value="- dadoDeBaja : boolean" style="text;align=left;verticalAlign=top;spacingLeft=4;spacingRight=4;overflow=hidden;rotatable=0;points=[[0,0.5],[1,0.5]];portConstraint=eastwest;rounded=0;shadow=0;html=0;fontSize=12;" parent="oOIH-ytNlQx51OnZuf94-37" vertex="1">
          <mxGeometry y="78" width="190" height="26" as="geometry" />
        </mxCell>
        <mxCell id="oOIH-ytNlQx51OnZuf94-41" value="" style="line;html=1;strokeWidth=1;align=left;verticalAlign=middle;spacingTop=-1;spacingLeft=3;spacingRight=3;rotatable=0;labelPosition=right;points=[];portConstraint=eastwest;fontSize=12;" parent="oOIH-ytNlQx51OnZuf94-37" vertex="1">
          <mxGeometry y="104" width="190" height="8" as="geometry" />
        </mxCell>
        <mxCell id="oOIH-ytNlQx51OnZuf94-42" value="+ chequearHabilitado()" style="text;align=left;verticalAlign=top;spacingLeft=4;spacingRight=4;overflow=hidden;rotatable=0;points=[[0,0.5],[1,0.5]];portConstraint=eastwest;fontSize=12;" parent="oOIH-ytNlQx51OnZuf94-37" vertex="1">
          <mxGeometry y="112" width="190" height="26" as="geometry" />
        </mxCell>
        <mxCell id="oOIH-ytNlQx51OnZuf94-43" value="DatosBancarios" style="swimlane;fontStyle=2;align=center;verticalAlign=top;childLayout=stackLayout;horizontal=1;startSize=26;horizontalStack=0;resizeParent=1;resizeLast=0;collapsible=1;marginBottom=0;rounded=0;shadow=0;strokeWidth=1;fontSize=12;" parent="1" vertex="1">
          <mxGeometry x="2450" y="528" width="100" height="192" as="geometry">
            <mxRectangle x="230" y="140" width="160" height="26" as="alternateBounds" />
          </mxGeometry>
        </mxCell>
        <mxCell id="oOIH-ytNlQx51OnZuf94-44" value="- cbu : longint" style="text;align=left;verticalAlign=top;spacingLeft=4;spacingRight=4;overflow=hidden;rotatable=0;points=[[0,0.5],[1,0.5]];portConstraint=eastwest;rounded=0;shadow=0;html=0;fontSize=12;" parent="oOIH-ytNlQx51OnZuf94-43" vertex="1">
          <mxGeometry y="26" width="100" height="26" as="geometry" />
        </mxCell>
        <mxCell id="oOIH-ytNlQx51OnZuf94-45" value="- banco : String" style="text;align=left;verticalAlign=top;spacingLeft=4;spacingRight=4;overflow=hidden;rotatable=0;points=[[0,0.5],[1,0.5]];portConstraint=eastwest;rounded=0;shadow=0;html=0;fontSize=12;" parent="oOIH-ytNlQx51OnZuf94-43" vertex="1">
          <mxGeometry y="52" width="100" height="26" as="geometry" />
        </mxCell>
        <mxCell id="oOIH-ytNlQx51OnZuf94-46" value="" style="line;html=1;strokeWidth=1;align=left;verticalAlign=middle;spacingTop=-1;spacingLeft=3;spacingRight=3;rotatable=0;labelPosition=right;points=[];portConstraint=eastwest;fontSize=12;" parent="oOIH-ytNlQx51OnZuf94-43" vertex="1">
          <mxGeometry y="78" width="100" height="8" as="geometry" />
        </mxCell>
        <mxCell id="oOIH-ytNlQx51OnZuf94-47" value="+ getCbu()" style="text;align=left;verticalAlign=top;spacingLeft=4;spacingRight=4;overflow=hidden;rotatable=0;points=[[0,0.5],[1,0.5]];portConstraint=eastwest;rounded=0;shadow=0;html=0;fontSize=12;" parent="oOIH-ytNlQx51OnZuf94-43" vertex="1">
          <mxGeometry y="86" width="100" height="26" as="geometry" />
        </mxCell>
        <mxCell id="oOIH-ytNlQx51OnZuf94-48" value="+ setCbu()" style="text;align=left;verticalAlign=top;spacingLeft=4;spacingRight=4;overflow=hidden;rotatable=0;points=[[0,0.5],[1,0.5]];portConstraint=eastwest;rounded=0;shadow=0;html=0;fontSize=12;" parent="oOIH-ytNlQx51OnZuf94-43" vertex="1">
          <mxGeometry y="112" width="100" height="26" as="geometry" />
        </mxCell>
        <mxCell id="oOIH-ytNlQx51OnZuf94-49" value="+ getBanco()" style="text;align=left;verticalAlign=top;spacingLeft=4;spacingRight=4;overflow=hidden;rotatable=0;points=[[0,0.5],[1,0.5]];portConstraint=eastwest;rounded=0;shadow=0;html=0;fontSize=12;" parent="oOIH-ytNlQx51OnZuf94-43" vertex="1">
          <mxGeometry y="138" width="100" height="26" as="geometry" />
        </mxCell>
        <mxCell id="oOIH-ytNlQx51OnZuf94-50" value="+ setBanco()" style="text;align=left;verticalAlign=top;spacingLeft=4;spacingRight=4;overflow=hidden;rotatable=0;points=[[0,0.5],[1,0.5]];portConstraint=eastwest;rounded=0;shadow=0;html=0;fontSize=12;" parent="oOIH-ytNlQx51OnZuf94-43" vertex="1">
          <mxGeometry y="164" width="100" height="26" as="geometry" />
        </mxCell>
        <mxCell id="oOIH-ytNlQx51OnZuf94-51" style="edgeStyle=orthogonalEdgeStyle;rounded=0;orthogonalLoop=1;jettySize=auto;html=1;startArrow=diamondThin;startFill=0;" parent="1" source="oOIH-ytNlQx51OnZuf94-54" target="oOIH-ytNlQx51OnZuf94-59" edge="1">
          <mxGeometry relative="1" as="geometry">
            <Array as="points">
              <mxPoint x="1840" y="660" />
              <mxPoint x="1840" y="660" />
            </Array>
          </mxGeometry>
        </mxCell>
        <mxCell id="oOIH-ytNlQx51OnZuf94-52" style="edgeStyle=orthogonalEdgeStyle;rounded=0;orthogonalLoop=1;jettySize=auto;html=1;startArrow=diamondThin;startFill=0;" parent="1" source="oOIH-ytNlQx51OnZuf94-54" target="oOIH-ytNlQx51OnZuf94-65" edge="1">
          <mxGeometry relative="1" as="geometry">
            <Array as="points">
              <mxPoint x="2020" y="830" />
            </Array>
            <mxPoint x="2084" y="780" as="sourcePoint" />
            <mxPoint x="2048" y="830" as="targetPoint" />
          </mxGeometry>
        </mxCell>
        <mxCell id="oOIH-ytNlQx51OnZuf94-53" style="edgeStyle=orthogonalEdgeStyle;rounded=0;orthogonalLoop=1;jettySize=auto;html=1;startArrow=diamondThin;startFill=0;" parent="1" source="oOIH-ytNlQx51OnZuf94-54" target="oOIH-ytNlQx51OnZuf94-71" edge="1">
          <mxGeometry relative="1" as="geometry">
            <Array as="points">
              <mxPoint x="2040" y="940" />
            </Array>
            <mxPoint x="2094" y="780" as="sourcePoint" />
            <mxPoint x="2063" y="940" as="targetPoint" />
          </mxGeometry>
        </mxCell>
        <mxCell id="oOIH-ytNlQx51OnZuf94-54" value="Billetera" style="swimlane;fontStyle=2;align=center;verticalAlign=top;childLayout=stackLayout;horizontal=1;startSize=26;horizontalStack=0;resizeParent=1;resizeLast=0;collapsible=1;marginBottom=0;rounded=0;shadow=0;strokeWidth=1;fontSize=12;" parent="1" vertex="1">
          <mxGeometry x="2008" y="650" width="245" height="130" as="geometry">
            <mxRectangle x="230" y="140" width="160" height="26" as="alternateBounds" />
          </mxGeometry>
        </mxCell>
        <mxCell id="oOIH-ytNlQx51OnZuf94-55" value="- balance : double" style="text;align=left;verticalAlign=top;spacingLeft=4;spacingRight=4;overflow=hidden;rotatable=0;points=[[0,0.5],[1,0.5]];portConstraint=eastwest;rounded=0;shadow=0;html=0;fontSize=12;" parent="oOIH-ytNlQx51OnZuf94-54" vertex="1">
          <mxGeometry y="26" width="245" height="26" as="geometry" />
        </mxCell>
        <mxCell id="oOIH-ytNlQx51OnZuf94-56" value="- activos : List&lt;Activo&gt;" style="text;align=left;verticalAlign=top;spacingLeft=4;spacingRight=4;overflow=hidden;rotatable=0;points=[[0,0.5],[1,0.5]];portConstraint=eastwest;rounded=0;shadow=0;html=0;fontSize=12;" parent="oOIH-ytNlQx51OnZuf94-54" vertex="1">
          <mxGeometry y="52" width="245" height="26" as="geometry" />
        </mxCell>
        <mxCell id="oOIH-ytNlQx51OnZuf94-57" value="- freezados : List&lt;ActivoFreezado&gt;" style="text;align=left;verticalAlign=top;spacingLeft=4;spacingRight=4;overflow=hidden;rotatable=0;points=[[0,0.5],[1,0.5]];portConstraint=eastwest;rounded=0;shadow=0;html=0;fontSize=12;" parent="oOIH-ytNlQx51OnZuf94-54" vertex="1">
          <mxGeometry y="78" width="245" height="26" as="geometry" />
        </mxCell>
        <mxCell id="oOIH-ytNlQx51OnZuf94-58" value="- historialTransacciones : List&lt;Transaccion&gt;" style="text;align=left;verticalAlign=top;spacingLeft=4;spacingRight=4;overflow=hidden;rotatable=0;points=[[0,0.5],[1,0.5]];portConstraint=eastwest;rounded=0;shadow=0;html=0;fontSize=12;" parent="oOIH-ytNlQx51OnZuf94-54" vertex="1">
          <mxGeometry y="104" width="245" height="26" as="geometry" />
        </mxCell>
        <mxCell id="oOIH-ytNlQx51OnZuf94-59" value="Moneda" style="swimlane;fontStyle=2;align=center;verticalAlign=top;childLayout=stackLayout;horizontal=1;startSize=26;horizontalStack=0;resizeParent=1;resizeLast=0;collapsible=1;marginBottom=0;rounded=0;shadow=0;strokeWidth=1;" parent="1" vertex="1">
          <mxGeometry x="1625" y="650" width="110" height="80" as="geometry">
            <mxRectangle x="320" y="12" width="160" height="26" as="alternateBounds" />
          </mxGeometry>
        </mxCell>
        <mxCell id="oOIH-ytNlQx51OnZuf94-60" value="- Nombre : String" style="text;align=left;verticalAlign=top;spacingLeft=4;spacingRight=4;overflow=hidden;rotatable=0;points=[[0,0.5],[1,0.5]];portConstraint=eastwest;" parent="oOIH-ytNlQx51OnZuf94-59" vertex="1">
          <mxGeometry y="26" width="110" height="26" as="geometry" />
        </mxCell>
        <mxCell id="oOIH-ytNlQx51OnZuf94-61" value="- Precio : double" style="text;align=left;verticalAlign=top;spacingLeft=4;spacingRight=4;overflow=hidden;rotatable=0;points=[[0,0.5],[1,0.5]];portConstraint=eastwest;rounded=0;shadow=0;html=0;" parent="oOIH-ytNlQx51OnZuf94-59" vertex="1">
          <mxGeometry y="52" width="110" height="26" as="geometry" />
        </mxCell>
        <mxCell id="oOIH-ytNlQx51OnZuf94-62" style="edgeStyle=orthogonalEdgeStyle;rounded=0;orthogonalLoop=1;jettySize=auto;html=1;startArrow=diamondThin;startFill=0;" parent="1" source="oOIH-ytNlQx51OnZuf94-65" target="oOIH-ytNlQx51OnZuf94-59" edge="1">
          <mxGeometry relative="1" as="geometry">
            <Array as="points">
              <mxPoint x="1930" y="690" />
            </Array>
          </mxGeometry>
        </mxCell>
        <mxCell id="oOIH-ytNlQx51OnZuf94-63" value="1" style="edgeLabel;html=1;align=center;verticalAlign=middle;resizable=0;points=[];" parent="oOIH-ytNlQx51OnZuf94-62" vertex="1" connectable="0">
          <mxGeometry x="-0.8333" y="-1" relative="1" as="geometry">
            <mxPoint x="-16" y="-97" as="offset" />
          </mxGeometry>
        </mxCell>
        <mxCell id="oOIH-ytNlQx51OnZuf94-64" value="moneda" style="edgeLabel;html=1;align=center;verticalAlign=middle;resizable=0;points=[];" parent="oOIH-ytNlQx51OnZuf94-62" vertex="1" connectable="0">
          <mxGeometry x="0.5559" y="-2" relative="1" as="geometry">
            <mxPoint x="-32" y="-7" as="offset" />
          </mxGeometry>
        </mxCell>
        <mxCell id="oOIH-ytNlQx51OnZuf94-65" value="Activo" style="swimlane;fontStyle=2;align=center;verticalAlign=top;childLayout=stackLayout;horizontal=1;startSize=26;horizontalStack=0;resizeParent=1;resizeLast=0;collapsible=1;marginBottom=0;rounded=0;shadow=0;strokeWidth=1;" parent="1" vertex="1">
          <mxGeometry x="1864" y="804" width="120" height="78" as="geometry">
            <mxRectangle x="320" y="12" width="160" height="26" as="alternateBounds" />
          </mxGeometry>
        </mxCell>
        <mxCell id="oOIH-ytNlQx51OnZuf94-66" value="- cantidad : double" style="text;align=left;verticalAlign=top;spacingLeft=4;spacingRight=4;overflow=hidden;rotatable=0;points=[[0,0.5],[1,0.5]];portConstraint=eastwest;rounded=0;shadow=0;html=0;" parent="oOIH-ytNlQx51OnZuf94-65" vertex="1">
          <mxGeometry y="26" width="120" height="26" as="geometry" />
        </mxCell>
        <mxCell id="oOIH-ytNlQx51OnZuf94-67" value="- codigo : String" style="text;align=left;verticalAlign=top;spacingLeft=4;spacingRight=4;overflow=hidden;rotatable=0;points=[[0,0.5],[1,0.5]];portConstraint=eastwest;rounded=0;shadow=0;html=0;" parent="oOIH-ytNlQx51OnZuf94-65" vertex="1">
          <mxGeometry y="52" width="120" height="26" as="geometry" />
        </mxCell>
        <mxCell id="oOIH-ytNlQx51OnZuf94-68" style="edgeStyle=orthogonalEdgeStyle;rounded=0;orthogonalLoop=1;jettySize=auto;html=1;startArrow=diamondThin;startFill=0;" parent="1" source="oOIH-ytNlQx51OnZuf94-72" target="oOIH-ytNlQx51OnZuf94-59" edge="1">
          <mxGeometry relative="1" as="geometry">
            <Array as="points">
              <mxPoint x="1840" y="940" />
              <mxPoint x="1840" y="720" />
            </Array>
            <mxPoint x="1850" y="930" as="sourcePoint" />
            <mxPoint x="1730" y="720" as="targetPoint" />
          </mxGeometry>
        </mxCell>
        <mxCell id="oOIH-ytNlQx51OnZuf94-69" value="1" style="edgeLabel;html=1;align=center;verticalAlign=middle;resizable=0;points=[];" parent="oOIH-ytNlQx51OnZuf94-68" vertex="1" connectable="0">
          <mxGeometry x="-0.5502" y="-1" relative="1" as="geometry">
            <mxPoint x="4" y="-147" as="offset" />
          </mxGeometry>
        </mxCell>
        <mxCell id="oOIH-ytNlQx51OnZuf94-70" value="moneda" style="edgeLabel;html=1;align=center;verticalAlign=middle;resizable=0;points=[];" parent="oOIH-ytNlQx51OnZuf94-68" vertex="1" connectable="0">
          <mxGeometry x="0.7031" y="-2" relative="1" as="geometry">
            <mxPoint x="-16" y="-6" as="offset" />
          </mxGeometry>
        </mxCell>
        <mxCell id="oOIH-ytNlQx51OnZuf94-71" value="ActivoFreezado" style="swimlane;fontStyle=2;align=center;verticalAlign=top;childLayout=stackLayout;horizontal=1;startSize=26;horizontalStack=0;resizeParent=1;resizeLast=0;collapsible=1;marginBottom=0;rounded=0;shadow=0;strokeWidth=1;spacing=2;" parent="1" vertex="1">
          <mxGeometry x="1849" y="897" width="150" height="80" as="geometry">
            <mxRectangle x="320" y="12" width="160" height="26" as="alternateBounds" />
          </mxGeometry>
        </mxCell>
        <mxCell id="oOIH-ytNlQx51OnZuf94-72" value="- cantidad : double" style="text;align=left;verticalAlign=top;spacingLeft=4;spacingRight=4;overflow=hidden;rotatable=0;points=[[0,0.5],[1,0.5]];portConstraint=eastwest;rounded=0;shadow=0;html=0;" parent="oOIH-ytNlQx51OnZuf94-71" vertex="1">
          <mxGeometry y="26" width="150" height="26" as="geometry" />
        </mxCell>
        <mxCell id="oOIH-ytNlQx51OnZuf94-73" value="- nombreProtocolo : String" style="text;align=left;verticalAlign=top;spacingLeft=4;spacingRight=4;overflow=hidden;rotatable=0;points=[[0,0.5],[1,0.5]];portConstraint=eastwest;rounded=0;shadow=0;html=0;fontSize=12;" parent="oOIH-ytNlQx51OnZuf94-71" vertex="1">
          <mxGeometry y="52" width="150" height="26" as="geometry" />
        </mxCell>
        <mxCell id="oOIH-ytNlQx51OnZuf94-74" style="edgeStyle=orthogonalEdgeStyle;rounded=0;orthogonalLoop=1;jettySize=auto;html=1;exitX=0.5;exitY=1;exitDx=0;exitDy=0;entryX=0.5;entryY=0;entryDx=0;entryDy=0;startArrow=diamondThin;startFill=0;" parent="1" source="oOIH-ytNlQx51OnZuf94-75" target="oOIH-ytNlQx51OnZuf94-83" edge="1">
          <mxGeometry relative="1" as="geometry" />
        </mxCell>
        <mxCell id="oOIH-ytNlQx51OnZuf94-75" value="Protocolo" style="swimlane;fontStyle=2;align=center;verticalAlign=top;childLayout=stackLayout;horizontal=1;startSize=26;horizontalStack=0;resizeParent=1;resizeLast=0;collapsible=1;marginBottom=0;rounded=0;shadow=0;strokeWidth=1;fontSize=12;" parent="1" vertex="1">
          <mxGeometry x="1193.5" y="297" width="226.5" height="112" as="geometry">
            <mxRectangle x="230" y="140" width="160" height="26" as="alternateBounds" />
          </mxGeometry>
        </mxCell>
        <mxCell id="oOIH-ytNlQx51OnZuf94-76" value="- nombre : String" style="text;align=left;verticalAlign=top;spacingLeft=4;spacingRight=4;overflow=hidden;rotatable=0;points=[[0,0.5],[1,0.5]];portConstraint=eastwest;rounded=0;shadow=0;html=0;fontSize=12;" parent="oOIH-ytNlQx51OnZuf94-75" vertex="1">
          <mxGeometry y="26" width="226.5" height="26" as="geometry" />
        </mxCell>
        <mxCell id="oOIH-ytNlQx51OnZuf94-77" value="- listaRendimientos : List&lt;Rendimiento&gt;" style="text;align=left;verticalAlign=top;spacingLeft=4;spacingRight=4;overflow=hidden;rotatable=0;points=[[0,0.5],[1,0.5]];portConstraint=eastwest;rounded=0;shadow=0;html=0;fontSize=12;" parent="oOIH-ytNlQx51OnZuf94-75" vertex="1">
          <mxGeometry y="52" width="226.5" height="26" as="geometry" />
        </mxCell>
        <mxCell id="oOIH-ytNlQx51OnZuf94-78" value="" style="line;html=1;strokeWidth=1;align=left;verticalAlign=middle;spacingTop=-1;spacingLeft=3;spacingRight=3;rotatable=0;labelPosition=right;points=[];portConstraint=eastwest;fontSize=12;" parent="oOIH-ytNlQx51OnZuf94-75" vertex="1">
          <mxGeometry y="78" width="226.5" height="8" as="geometry" />
        </mxCell>
        <mxCell id="oOIH-ytNlQx51OnZuf94-79" value="+ toString()" style="text;align=left;verticalAlign=top;spacingLeft=4;spacingRight=4;overflow=hidden;rotatable=0;points=[[0,0.5],[1,0.5]];portConstraint=eastwest;rounded=0;shadow=0;html=0;fontSize=12;" parent="oOIH-ytNlQx51OnZuf94-75" vertex="1">
          <mxGeometry y="86" width="226.5" height="24" as="geometry" />
        </mxCell>
        <mxCell id="oOIH-ytNlQx51OnZuf94-80" style="edgeStyle=orthogonalEdgeStyle;rounded=0;orthogonalLoop=1;jettySize=auto;html=1;startArrow=diamondThin;startFill=0;" parent="1" source="oOIH-ytNlQx51OnZuf94-83" target="oOIH-ytNlQx51OnZuf94-59" edge="1">
          <mxGeometry relative="1" as="geometry">
            <Array as="points">
              <mxPoint x="1510" y="670" />
              <mxPoint x="1510" y="670" />
            </Array>
          </mxGeometry>
        </mxCell>
        <mxCell id="oOIH-ytNlQx51OnZuf94-81" value="1" style="edgeLabel;html=1;align=center;verticalAlign=middle;resizable=0;points=[];" parent="oOIH-ytNlQx51OnZuf94-80" vertex="1" connectable="0">
          <mxGeometry x="-0.7619" y="1" relative="1" as="geometry">
            <mxPoint y="-7" as="offset" />
          </mxGeometry>
        </mxCell>
        <mxCell id="oOIH-ytNlQx51OnZuf94-82" value="moneda" style="edgeLabel;html=1;align=center;verticalAlign=middle;resizable=0;points=[];" parent="oOIH-ytNlQx51OnZuf94-80" vertex="1" connectable="0">
          <mxGeometry x="0.3574" y="1" relative="1" as="geometry">
            <mxPoint x="26" y="-7" as="offset" />
          </mxGeometry>
        </mxCell>
        <mxCell id="oOIH-ytNlQx51OnZuf94-83" value="Rendimiento" style="swimlane;fontStyle=2;align=center;verticalAlign=top;childLayout=stackLayout;horizontal=1;startSize=26;horizontalStack=0;resizeParent=1;resizeLast=0;collapsible=1;marginBottom=0;rounded=0;shadow=0;strokeWidth=1;fontSize=12;" parent="1" vertex="1">
          <mxGeometry x="1216.75" y="634" width="180" height="86" as="geometry">
            <mxRectangle x="230" y="140" width="160" height="26" as="alternateBounds" />
          </mxGeometry>
        </mxCell>
        <mxCell id="oOIH-ytNlQx51OnZuf94-84" value="- rendimiento : double" style="text;align=left;verticalAlign=top;spacingLeft=4;spacingRight=4;overflow=hidden;rotatable=0;points=[[0,0.5],[1,0.5]];portConstraint=eastwest;rounded=0;shadow=0;html=0;fontSize=12;" parent="oOIH-ytNlQx51OnZuf94-83" vertex="1">
          <mxGeometry y="26" width="180" height="26" as="geometry" />
        </mxCell>
        <mxCell id="oOIH-ytNlQx51OnZuf94-85" value="" style="line;html=1;strokeWidth=1;align=left;verticalAlign=middle;spacingTop=-1;spacingLeft=3;spacingRight=3;rotatable=0;labelPosition=right;points=[];portConstraint=eastwest;fontSize=12;" parent="oOIH-ytNlQx51OnZuf94-83" vertex="1">
          <mxGeometry y="52" width="180" height="8" as="geometry" />
        </mxCell>
        <mxCell id="oOIH-ytNlQx51OnZuf94-86" value="+ toString()" style="text;align=left;verticalAlign=top;spacingLeft=4;spacingRight=4;overflow=hidden;rotatable=0;points=[[0,0.5],[1,0.5]];portConstraint=eastwest;rounded=0;shadow=0;html=0;fontSize=12;" parent="oOIH-ytNlQx51OnZuf94-83" vertex="1">
          <mxGeometry y="60" width="180" height="26" as="geometry" />
        </mxCell>
        <mxCell id="oOIH-ytNlQx51OnZuf94-87" style="edgeStyle=orthogonalEdgeStyle;rounded=0;orthogonalLoop=1;jettySize=auto;html=1;startArrow=diamondThin;startFill=0;" parent="1" source="oOIH-ytNlQx51OnZuf94-90" target="oOIH-ytNlQx51OnZuf94-101" edge="1">
          <mxGeometry relative="1" as="geometry">
            <Array as="points">
              <mxPoint x="3024" y="344" />
              <mxPoint x="3024" y="344" />
            </Array>
          </mxGeometry>
        </mxCell>
        <mxCell id="oOIH-ytNlQx51OnZuf94-88" value="1" style="edgeLabel;html=1;align=center;verticalAlign=middle;resizable=0;points=[];" parent="oOIH-ytNlQx51OnZuf94-87" vertex="1" connectable="0">
          <mxGeometry x="-0.6517" y="2" relative="1" as="geometry">
            <mxPoint x="-9" y="-6" as="offset" />
          </mxGeometry>
        </mxCell>
        <mxCell id="oOIH-ytNlQx51OnZuf94-89" value="&lt;span style=&quot;font-size: 12px; text-align: left; background-color: rgb(251, 251, 251);&quot;&gt;tipoVerificacion&lt;/span&gt;" style="edgeLabel;html=1;align=center;verticalAlign=middle;resizable=0;points=[];" parent="oOIH-ytNlQx51OnZuf94-87" vertex="1" connectable="0">
          <mxGeometry x="0.3833" relative="1" as="geometry">
            <mxPoint x="-13" y="-9" as="offset" />
          </mxGeometry>
        </mxCell>
        <mxCell id="oOIH-ytNlQx51OnZuf94-90" value="DatosDeSeguridad" style="swimlane;fontStyle=2;align=center;verticalAlign=top;childLayout=stackLayout;horizontal=1;startSize=26;horizontalStack=0;resizeParent=1;resizeLast=0;collapsible=1;marginBottom=0;rounded=0;shadow=0;strokeWidth=1;" parent="1" vertex="1">
          <mxGeometry x="2644" y="227" width="300" height="208" as="geometry">
            <mxRectangle x="320" y="12" width="160" height="26" as="alternateBounds" />
          </mxGeometry>
        </mxCell>
        <mxCell id="oOIH-ytNlQx51OnZuf94-91" value="- notificacionInicioDeSesion : boolean" style="text;align=left;verticalAlign=top;spacingLeft=4;spacingRight=4;overflow=hidden;rotatable=0;points=[[0,0.5],[1,0.5]];portConstraint=eastwest;rounded=0;shadow=0;html=0;" parent="oOIH-ytNlQx51OnZuf94-90" vertex="1">
          <mxGeometry y="26" width="300" height="26" as="geometry" />
        </mxCell>
        <mxCell id="oOIH-ytNlQx51OnZuf94-92" value="- notificacionTransaccionRealizada : boolean" style="text;align=left;verticalAlign=top;spacingLeft=4;spacingRight=4;overflow=hidden;rotatable=0;points=[[0,0.5],[1,0.5]];portConstraint=eastwest;rounded=0;shadow=0;html=0;" parent="oOIH-ytNlQx51OnZuf94-90" vertex="1">
          <mxGeometry y="52" width="300" height="26" as="geometry" />
        </mxCell>
        <mxCell id="oOIH-ytNlQx51OnZuf94-93" value="- preguntaDeSeguridad : List&lt;PreguntaYRespuesta&gt;" style="text;align=left;verticalAlign=top;spacingLeft=4;spacingRight=4;overflow=hidden;rotatable=0;points=[[0,0.5],[1,0.5]];portConstraint=eastwest;rounded=0;shadow=0;html=0;" parent="oOIH-ytNlQx51OnZuf94-90" vertex="1">
          <mxGeometry y="78" width="300" height="26" as="geometry" />
        </mxCell>
        <mxCell id="oOIH-ytNlQx51OnZuf94-94" value="- fotosDocumento : arrayOfBufferedImage" style="text;align=left;verticalAlign=top;spacingLeft=4;spacingRight=4;overflow=hidden;rotatable=0;points=[[0,0.5],[1,0.5]];portConstraint=eastwest;rounded=0;shadow=0;html=0;" parent="oOIH-ytNlQx51OnZuf94-90" vertex="1">
          <mxGeometry y="104" width="300" height="26" as="geometry" />
        </mxCell>
        <mxCell id="oOIH-ytNlQx51OnZuf94-95" value="- verificado : boolean" style="text;align=left;verticalAlign=top;spacingLeft=4;spacingRight=4;overflow=hidden;rotatable=0;points=[[0,0.5],[1,0.5]];portConstraint=eastwest;rounded=0;shadow=0;html=0;" parent="oOIH-ytNlQx51OnZuf94-90" vertex="1">
          <mxGeometry y="130" width="300" height="26" as="geometry" />
        </mxCell>
        <mxCell id="oOIH-ytNlQx51OnZuf94-96" value="- aceptacionTyC : boolean" style="text;align=left;verticalAlign=top;spacingLeft=4;spacingRight=4;overflow=hidden;rotatable=0;points=[[0,0.5],[1,0.5]];portConstraint=eastwest;rounded=0;shadow=0;html=0;fontSize=12;" parent="oOIH-ytNlQx51OnZuf94-90" vertex="1">
          <mxGeometry y="156" width="300" height="26" as="geometry" />
        </mxCell>
        <mxCell id="oOIH-ytNlQx51OnZuf94-97" value="- banned : boolean" style="text;align=left;verticalAlign=top;spacingLeft=4;spacingRight=4;overflow=hidden;rotatable=0;points=[[0,0.5],[1,0.5]];portConstraint=eastwest;rounded=0;shadow=0;html=0;" parent="oOIH-ytNlQx51OnZuf94-90" vertex="1">
          <mxGeometry y="182" width="300" height="26" as="geometry" />
        </mxCell>
        <mxCell id="oOIH-ytNlQx51OnZuf94-98" value="PreguntaYRespuesta" style="swimlane;fontStyle=2;align=center;verticalAlign=top;childLayout=stackLayout;horizontal=1;startSize=26;horizontalStack=0;resizeParent=1;resizeLast=0;collapsible=1;marginBottom=0;rounded=0;shadow=0;strokeWidth=1;fontSize=12;" parent="1" vertex="1">
          <mxGeometry x="3059.5" y="227" width="127" height="82" as="geometry">
            <mxRectangle x="230" y="140" width="160" height="26" as="alternateBounds" />
          </mxGeometry>
        </mxCell>
        <mxCell id="oOIH-ytNlQx51OnZuf94-99" value="- pregunta : String" style="text;align=left;verticalAlign=top;spacingLeft=4;spacingRight=4;overflow=hidden;rotatable=0;points=[[0,0.5],[1,0.5]];portConstraint=eastwest;rounded=0;shadow=0;html=0;fontSize=12;" parent="oOIH-ytNlQx51OnZuf94-98" vertex="1">
          <mxGeometry y="26" width="127" height="26" as="geometry" />
        </mxCell>
        <mxCell id="oOIH-ytNlQx51OnZuf94-100" value="- respuesta : String" style="text;align=left;verticalAlign=top;spacingLeft=4;spacingRight=4;overflow=hidden;rotatable=0;points=[[0,0.5],[1,0.5]];portConstraint=eastwest;rounded=0;shadow=0;html=0;fontSize=12;" parent="oOIH-ytNlQx51OnZuf94-98" vertex="1">
          <mxGeometry y="52" width="127" height="26" as="geometry" />
        </mxCell>
        <mxCell id="oOIH-ytNlQx51OnZuf94-101" value="&lt;Abstract&gt;&#xa;&#xa;TipoVerificacion" style="swimlane;fontStyle=2;align=center;verticalAlign=top;childLayout=stackLayout;horizontal=1;startSize=60;horizontalStack=0;resizeParent=1;resizeLast=0;collapsible=1;marginBottom=0;rounded=0;shadow=0;strokeWidth=1;fontSize=12;" parent="1" vertex="1">
          <mxGeometry x="3077" y="317" width="92" height="86" as="geometry">
            <mxRectangle x="230" y="140" width="160" height="26" as="alternateBounds" />
          </mxGeometry>
        </mxCell>
        <mxCell id="oOIH-ytNlQx51OnZuf94-102" value="+ enviar()" style="text;align=left;verticalAlign=top;spacingLeft=4;spacingRight=4;overflow=hidden;rotatable=0;points=[[0,0.5],[1,0.5]];portConstraint=eastwest;rounded=0;shadow=0;html=0;fontSize=12;" parent="oOIH-ytNlQx51OnZuf94-101" vertex="1">
          <mxGeometry y="60" width="92" height="26" as="geometry" />
        </mxCell>
        <mxCell id="oOIH-ytNlQx51OnZuf94-103" style="edgeStyle=orthogonalEdgeStyle;rounded=0;orthogonalLoop=1;jettySize=auto;html=1;endArrow=block;endFill=0;" parent="1" source="oOIH-ytNlQx51OnZuf94-104" target="oOIH-ytNlQx51OnZuf94-101" edge="1">
          <mxGeometry relative="1" as="geometry">
            <Array as="points">
              <mxPoint x="3054" y="389" />
            </Array>
          </mxGeometry>
        </mxCell>
        <mxCell id="oOIH-ytNlQx51OnZuf94-104" value="VerificacionSMS" style="swimlane;fontStyle=2;align=center;verticalAlign=top;childLayout=stackLayout;horizontal=1;startSize=26;horizontalStack=0;resizeParent=1;resizeLast=0;collapsible=1;marginBottom=0;rounded=0;shadow=0;strokeWidth=1;fontSize=12;" parent="1" vertex="1">
          <mxGeometry x="2999" y="409" width="110" height="52" as="geometry">
            <mxRectangle x="230" y="140" width="160" height="26" as="alternateBounds" />
          </mxGeometry>
        </mxCell>
        <mxCell id="oOIH-ytNlQx51OnZuf94-105" value="+ toString()" style="text;align=left;verticalAlign=top;spacingLeft=4;spacingRight=4;overflow=hidden;rotatable=0;points=[[0,0.5],[1,0.5]];portConstraint=eastwest;rounded=0;shadow=0;html=0;fontSize=12;" parent="oOIH-ytNlQx51OnZuf94-104" vertex="1">
          <mxGeometry y="26" width="110" height="26" as="geometry" />
        </mxCell>
        <mxCell id="oOIH-ytNlQx51OnZuf94-106" style="edgeStyle=orthogonalEdgeStyle;rounded=0;orthogonalLoop=1;jettySize=auto;html=1;endArrow=block;endFill=0;" parent="1" source="oOIH-ytNlQx51OnZuf94-107" target="oOIH-ytNlQx51OnZuf94-101" edge="1">
          <mxGeometry relative="1" as="geometry">
            <Array as="points">
              <mxPoint x="3194" y="389" />
            </Array>
          </mxGeometry>
        </mxCell>
        <mxCell id="oOIH-ytNlQx51OnZuf94-107" value="VerificacionCorreo" style="swimlane;fontStyle=2;align=center;verticalAlign=top;childLayout=stackLayout;horizontal=1;startSize=26;horizontalStack=0;resizeParent=1;resizeLast=0;collapsible=1;marginBottom=0;rounded=0;shadow=0;strokeWidth=1;fontSize=12;labelBackgroundColor=default;" parent="1" vertex="1">
          <mxGeometry x="3139" y="409" width="109" height="52" as="geometry">
            <mxRectangle x="230" y="140" width="160" height="26" as="alternateBounds" />
          </mxGeometry>
        </mxCell>
        <mxCell id="oOIH-ytNlQx51OnZuf94-108" value="+ toString()" style="text;align=left;verticalAlign=top;spacingLeft=4;spacingRight=4;overflow=hidden;rotatable=0;points=[[0,0.5],[1,0.5]];portConstraint=eastwest;rounded=0;shadow=0;html=0;fontSize=12;" parent="oOIH-ytNlQx51OnZuf94-107" vertex="1">
          <mxGeometry y="26" width="109" height="26" as="geometry" />
        </mxCell>
        <mxCell id="oOIH-ytNlQx51OnZuf94-109" style="edgeStyle=orthogonalEdgeStyle;rounded=0;orthogonalLoop=1;jettySize=auto;html=1;endArrow=block;endFill=0;" parent="1" source="oOIH-ytNlQx51OnZuf94-112" target="oOIH-ytNlQx51OnZuf94-159" edge="1">
          <mxGeometry relative="1" as="geometry">
            <Array as="points">
              <mxPoint x="1446" y="1120" />
              <mxPoint x="1530" y="1120" />
            </Array>
          </mxGeometry>
        </mxCell>
        <mxCell id="oOIH-ytNlQx51OnZuf94-110" style="edgeStyle=orthogonalEdgeStyle;rounded=0;orthogonalLoop=1;jettySize=auto;html=1;startArrow=diamondThin;startFill=0;" parent="1" target="oOIH-ytNlQx51OnZuf94-54" edge="1">
          <mxGeometry relative="1" as="geometry">
            <Array as="points">
              <mxPoint x="1446" y="1280" />
              <mxPoint x="2180" y="1280" />
            </Array>
            <mxPoint x="1446.0153846153846" y="1193" as="sourcePoint" />
            <mxPoint x="2130.0153846153844" y="780" as="targetPoint" />
          </mxGeometry>
        </mxCell>
        <mxCell id="oOIH-ytNlQx51OnZuf94-111" value="1" style="edgeLabel;html=1;align=center;verticalAlign=middle;resizable=0;points=[];" parent="oOIH-ytNlQx51OnZuf94-110" vertex="1" connectable="0">
          <mxGeometry x="-0.8824" y="3" relative="1" as="geometry">
            <mxPoint x="3" as="offset" />
          </mxGeometry>
        </mxCell>
        <mxCell id="oOIH-ytNlQx51OnZuf94-112" value="Compra" style="swimlane;fontStyle=2;align=center;verticalAlign=top;childLayout=stackLayout;horizontal=1;startSize=26;horizontalStack=0;resizeParent=1;resizeLast=0;collapsible=1;marginBottom=0;rounded=0;shadow=0;strokeWidth=1;fontSize=12;" parent="1" vertex="1">
          <mxGeometry x="1382" y="1133" width="128" height="60" as="geometry">
            <mxRectangle x="230" y="140" width="160" height="26" as="alternateBounds" />
          </mxGeometry>
        </mxCell>
        <mxCell id="oOIH-ytNlQx51OnZuf94-113" value="" style="line;html=1;strokeWidth=1;align=left;verticalAlign=middle;spacingTop=-1;spacingLeft=3;spacingRight=3;rotatable=0;labelPosition=right;points=[];portConstraint=eastwest;fontSize=12;" parent="oOIH-ytNlQx51OnZuf94-112" vertex="1">
          <mxGeometry y="26" width="128" height="8" as="geometry" />
        </mxCell>
        <mxCell id="oOIH-ytNlQx51OnZuf94-114" value="+ toString()" style="text;align=left;verticalAlign=top;spacingLeft=4;spacingRight=4;overflow=hidden;rotatable=0;points=[[0,0.5],[1,0.5]];portConstraint=eastwest;rounded=0;shadow=0;html=0;fontSize=12;" parent="oOIH-ytNlQx51OnZuf94-112" vertex="1">
          <mxGeometry y="34" width="128" height="26" as="geometry" />
        </mxCell>
        <mxCell id="oOIH-ytNlQx51OnZuf94-115" style="edgeStyle=orthogonalEdgeStyle;rounded=0;orthogonalLoop=1;jettySize=auto;html=1;endArrow=block;endFill=0;" parent="1" source="oOIH-ytNlQx51OnZuf94-118" target="oOIH-ytNlQx51OnZuf94-159" edge="1">
          <mxGeometry relative="1" as="geometry">
            <Array as="points">
              <mxPoint x="1725" y="1090" />
              <mxPoint x="1590" y="1090" />
            </Array>
          </mxGeometry>
        </mxCell>
        <mxCell id="oOIH-ytNlQx51OnZuf94-116" style="edgeStyle=orthogonalEdgeStyle;rounded=0;orthogonalLoop=1;jettySize=auto;html=1;startArrow=diamondThin;startFill=0;" parent="1" target="oOIH-ytNlQx51OnZuf94-54" edge="1">
          <mxGeometry relative="1" as="geometry">
            <Array as="points">
              <mxPoint x="1755" y="1238" />
              <mxPoint x="2120" y="1238" />
            </Array>
            <mxPoint x="1754.49" y="1191" as="sourcePoint" />
            <mxPoint x="2080" y="780" as="targetPoint" />
          </mxGeometry>
        </mxCell>
        <mxCell id="oOIH-ytNlQx51OnZuf94-117" value="1" style="edgeLabel;html=1;align=center;verticalAlign=middle;resizable=0;points=[];" parent="oOIH-ytNlQx51OnZuf94-116" vertex="1" connectable="0">
          <mxGeometry x="-0.8933" y="2" relative="1" as="geometry">
            <mxPoint x="6" y="-9" as="offset" />
          </mxGeometry>
        </mxCell>
        <mxCell id="oOIH-ytNlQx51OnZuf94-118" value="Venta" style="swimlane;fontStyle=2;align=center;verticalAlign=top;childLayout=stackLayout;horizontal=1;startSize=26;horizontalStack=0;resizeParent=1;resizeLast=0;collapsible=1;marginBottom=0;rounded=0;shadow=0;strokeWidth=1;fontSize=12;" parent="1" vertex="1">
          <mxGeometry x="1660" y="1133" width="130" height="60" as="geometry">
            <mxRectangle x="230" y="140" width="160" height="26" as="alternateBounds" />
          </mxGeometry>
        </mxCell>
        <mxCell id="oOIH-ytNlQx51OnZuf94-119" value="" style="line;html=1;strokeWidth=1;align=left;verticalAlign=middle;spacingTop=-1;spacingLeft=3;spacingRight=3;rotatable=0;labelPosition=right;points=[];portConstraint=eastwest;fontSize=12;" parent="oOIH-ytNlQx51OnZuf94-118" vertex="1">
          <mxGeometry y="26" width="130" height="8" as="geometry" />
        </mxCell>
        <mxCell id="oOIH-ytNlQx51OnZuf94-120" value="+ toString()" style="text;align=left;verticalAlign=top;spacingLeft=4;spacingRight=4;overflow=hidden;rotatable=0;points=[[0,0.5],[1,0.5]];portConstraint=eastwest;rounded=0;shadow=0;html=0;fontSize=12;" parent="oOIH-ytNlQx51OnZuf94-118" vertex="1">
          <mxGeometry y="34" width="130" height="26" as="geometry" />
        </mxCell>
        <mxCell id="oOIH-ytNlQx51OnZuf94-121" style="edgeStyle=orthogonalEdgeStyle;rounded=0;orthogonalLoop=1;jettySize=auto;html=1;startArrow=diamondThin;startFill=0;" parent="1" source="oOIH-ytNlQx51OnZuf94-128" target="oOIH-ytNlQx51OnZuf94-59" edge="1">
          <mxGeometry relative="1" as="geometry">
            <Array as="points">
              <mxPoint x="1092" y="990" />
              <mxPoint x="1410" y="990" />
              <mxPoint x="1410" y="690" />
            </Array>
          </mxGeometry>
        </mxCell>
        <mxCell id="oOIH-ytNlQx51OnZuf94-122" value="1" style="edgeLabel;html=1;align=center;verticalAlign=middle;resizable=0;points=[];" parent="oOIH-ytNlQx51OnZuf94-121" vertex="1" connectable="0">
          <mxGeometry x="-0.7845" relative="1" as="geometry">
            <mxPoint x="8" y="-48" as="offset" />
          </mxGeometry>
        </mxCell>
        <mxCell id="oOIH-ytNlQx51OnZuf94-123" value="monedaSwap" style="edgeLabel;html=1;align=center;verticalAlign=middle;resizable=0;points=[];" parent="oOIH-ytNlQx51OnZuf94-121" vertex="1" connectable="0">
          <mxGeometry x="-0.5594" y="-2" relative="1" as="geometry">
            <mxPoint x="406" y="-312" as="offset" />
          </mxGeometry>
        </mxCell>
        <mxCell id="oOIH-ytNlQx51OnZuf94-124" style="edgeStyle=orthogonalEdgeStyle;rounded=0;orthogonalLoop=1;jettySize=auto;html=1;endArrow=block;endFill=0;startArrow=none;startFill=0;" parent="1" source="oOIH-ytNlQx51OnZuf94-128" target="oOIH-ytNlQx51OnZuf94-159" edge="1">
          <mxGeometry relative="1" as="geometry">
            <Array as="points">
              <mxPoint x="1110" y="1090" />
              <mxPoint x="1470" y="1090" />
            </Array>
          </mxGeometry>
        </mxCell>
        <mxCell id="oOIH-ytNlQx51OnZuf94-125" style="edgeStyle=orthogonalEdgeStyle;rounded=0;orthogonalLoop=1;jettySize=auto;html=1;startArrow=diamondThin;startFill=0;" parent="1" target="oOIH-ytNlQx51OnZuf94-54" edge="1">
          <mxGeometry relative="1" as="geometry">
            <Array as="points">
              <mxPoint x="1092" y="1320" />
              <mxPoint x="2240" y="1320" />
            </Array>
            <mxPoint x="1092.0153846153846" y="1193" as="sourcePoint" />
            <mxPoint x="2180.0153846153844" y="780" as="targetPoint" />
          </mxGeometry>
        </mxCell>
        <mxCell id="oOIH-ytNlQx51OnZuf94-126" value="1" style="edgeLabel;html=1;align=center;verticalAlign=middle;resizable=0;points=[];" parent="oOIH-ytNlQx51OnZuf94-125" vertex="1" connectable="0">
          <mxGeometry x="-0.8303" y="-1" relative="1" as="geometry">
            <mxPoint x="-15" y="-10" as="offset" />
          </mxGeometry>
        </mxCell>
        <mxCell id="oOIH-ytNlQx51OnZuf94-127" value="miBilletera" style="edgeLabel;html=1;align=center;verticalAlign=middle;resizable=0;points=[];" parent="oOIH-ytNlQx51OnZuf94-125" vertex="1" connectable="0">
          <mxGeometry x="-0.725" y="-2" relative="1" as="geometry">
            <mxPoint x="995" y="-12" as="offset" />
          </mxGeometry>
        </mxCell>
        <mxCell id="oOIH-ytNlQx51OnZuf94-128" value="Swap" style="swimlane;fontStyle=2;align=center;verticalAlign=top;childLayout=stackLayout;horizontal=1;startSize=26;horizontalStack=0;resizeParent=1;resizeLast=0;collapsible=1;marginBottom=0;rounded=0;shadow=0;strokeWidth=1;fontSize=12;" parent="1" vertex="1">
          <mxGeometry x="1020" y="1133" width="144" height="60" as="geometry">
            <mxRectangle x="230" y="140" width="160" height="26" as="alternateBounds" />
          </mxGeometry>
        </mxCell>
        <mxCell id="oOIH-ytNlQx51OnZuf94-129" value="" style="line;html=1;strokeWidth=1;align=left;verticalAlign=middle;spacingTop=-1;spacingLeft=3;spacingRight=3;rotatable=0;labelPosition=right;points=[];portConstraint=eastwest;fontSize=12;" parent="oOIH-ytNlQx51OnZuf94-128" vertex="1">
          <mxGeometry y="26" width="144" height="8" as="geometry" />
        </mxCell>
        <mxCell id="oOIH-ytNlQx51OnZuf94-130" value="+ toString()" style="text;align=left;verticalAlign=top;spacingLeft=4;spacingRight=4;overflow=hidden;rotatable=0;points=[[0,0.5],[1,0.5]];portConstraint=eastwest;rounded=0;shadow=0;html=0;fontSize=12;" parent="oOIH-ytNlQx51OnZuf94-128" vertex="1">
          <mxGeometry y="34" width="144" height="26" as="geometry" />
        </mxCell>
        <mxCell id="oOIH-ytNlQx51OnZuf94-131" style="edgeStyle=orthogonalEdgeStyle;rounded=0;orthogonalLoop=1;jettySize=auto;html=1;endArrow=block;endFill=0;" parent="1" source="oOIH-ytNlQx51OnZuf94-135" target="oOIH-ytNlQx51OnZuf94-159" edge="1">
          <mxGeometry relative="1" as="geometry">
            <Array as="points">
              <mxPoint x="1270" y="1110" />
              <mxPoint x="1500" y="1110" />
            </Array>
          </mxGeometry>
        </mxCell>
        <mxCell id="oOIH-ytNlQx51OnZuf94-132" style="edgeStyle=orthogonalEdgeStyle;rounded=0;orthogonalLoop=1;jettySize=auto;html=1;startArrow=diamondThin;startFill=0;" parent="1" target="oOIH-ytNlQx51OnZuf94-54" edge="1">
          <mxGeometry relative="1" as="geometry">
            <Array as="points">
              <mxPoint x="1275" y="1300" />
              <mxPoint x="2210" y="1300" />
            </Array>
            <mxPoint x="1275.0153846153846" y="1245" as="sourcePoint" />
            <mxPoint x="2155.0153846153844" y="780" as="targetPoint" />
          </mxGeometry>
        </mxCell>
        <mxCell id="oOIH-ytNlQx51OnZuf94-133" value="1" style="edgeLabel;html=1;align=center;verticalAlign=middle;resizable=0;points=[];" parent="oOIH-ytNlQx51OnZuf94-132" vertex="1" connectable="0">
          <mxGeometry x="-0.9199" y="1" relative="1" as="geometry">
            <mxPoint x="3" y="-8" as="offset" />
          </mxGeometry>
        </mxCell>
        <mxCell id="oOIH-ytNlQx51OnZuf94-134" value="miBilletera" style="edgeLabel;html=1;align=center;verticalAlign=middle;resizable=0;points=[];" parent="oOIH-ytNlQx51OnZuf94-132" vertex="1" connectable="0">
          <mxGeometry x="-0.644" y="-2" relative="1" as="geometry">
            <mxPoint x="691" y="-12" as="offset" />
          </mxGeometry>
        </mxCell>
        <mxCell id="oOIH-ytNlQx51OnZuf94-135" value="Envio" style="swimlane;fontStyle=2;align=center;verticalAlign=top;childLayout=stackLayout;horizontal=1;startSize=26;horizontalStack=0;resizeParent=1;resizeLast=0;collapsible=1;marginBottom=0;rounded=0;shadow=0;strokeWidth=1;fontSize=12;" parent="1" vertex="1">
          <mxGeometry x="1180" y="1133" width="180" height="112" as="geometry">
            <mxRectangle x="230" y="140" width="160" height="26" as="alternateBounds" />
          </mxGeometry>
        </mxCell>
        <mxCell id="oOIH-ytNlQx51OnZuf94-136" value="- codigoDestino : String" style="text;align=left;verticalAlign=top;spacingLeft=4;spacingRight=4;overflow=hidden;rotatable=0;points=[[0,0.5],[1,0.5]];portConstraint=eastwest;rounded=0;shadow=0;html=0;fontSize=12;" parent="oOIH-ytNlQx51OnZuf94-135" vertex="1">
          <mxGeometry y="26" width="180" height="26" as="geometry" />
        </mxCell>
        <mxCell id="oOIH-ytNlQx51OnZuf94-137" value="" style="line;html=1;strokeWidth=1;align=left;verticalAlign=middle;spacingTop=-1;spacingLeft=3;spacingRight=3;rotatable=0;labelPosition=right;points=[];portConstraint=eastwest;fontSize=12;" parent="oOIH-ytNlQx51OnZuf94-135" vertex="1">
          <mxGeometry y="52" width="180" height="8" as="geometry" />
        </mxCell>
        <mxCell id="oOIH-ytNlQx51OnZuf94-138" value="+ chequearDemorasYCostos()" style="text;align=left;verticalAlign=top;spacingLeft=4;spacingRight=4;overflow=hidden;rotatable=0;points=[[0,0.5],[1,0.5]];portConstraint=eastwest;rounded=0;shadow=0;html=0;fontSize=12;" parent="oOIH-ytNlQx51OnZuf94-135" vertex="1">
          <mxGeometry y="60" width="180" height="26" as="geometry" />
        </mxCell>
        <mxCell id="oOIH-ytNlQx51OnZuf94-139" value="+ toString()" style="text;align=left;verticalAlign=top;spacingLeft=4;spacingRight=4;overflow=hidden;rotatable=0;points=[[0,0.5],[1,0.5]];portConstraint=eastwest;rounded=0;shadow=0;html=0;fontSize=12;" parent="oOIH-ytNlQx51OnZuf94-135" vertex="1">
          <mxGeometry y="86" width="180" height="26" as="geometry" />
        </mxCell>
        <mxCell id="oOIH-ytNlQx51OnZuf94-140" style="edgeStyle=orthogonalEdgeStyle;rounded=0;orthogonalLoop=1;jettySize=auto;html=1;endArrow=block;endFill=0;" parent="1" source="oOIH-ytNlQx51OnZuf94-143" target="oOIH-ytNlQx51OnZuf94-159" edge="1">
          <mxGeometry relative="1" as="geometry">
            <Array as="points">
              <mxPoint x="1587" y="1110" />
              <mxPoint x="1560" y="1110" />
            </Array>
          </mxGeometry>
        </mxCell>
        <mxCell id="oOIH-ytNlQx51OnZuf94-141" style="edgeStyle=orthogonalEdgeStyle;rounded=0;orthogonalLoop=1;jettySize=auto;html=1;startArrow=diamondThin;startFill=0;" parent="1" target="oOIH-ytNlQx51OnZuf94-54" edge="1">
          <mxGeometry relative="1" as="geometry">
            <Array as="points">
              <mxPoint x="1603" y="1260" />
              <mxPoint x="2150" y="1260" />
            </Array>
            <mxPoint x="1602.5076923076924" y="1220" as="sourcePoint" />
            <mxPoint x="2106.0153846153844" y="780" as="targetPoint" />
          </mxGeometry>
        </mxCell>
        <mxCell id="oOIH-ytNlQx51OnZuf94-142" value="1" style="edgeLabel;html=1;align=center;verticalAlign=middle;resizable=0;points=[];" parent="oOIH-ytNlQx51OnZuf94-141" vertex="1" connectable="0">
          <mxGeometry x="-0.9241" y="1" relative="1" as="geometry">
            <mxPoint x="7" y="-9" as="offset" />
          </mxGeometry>
        </mxCell>
        <mxCell id="oOIH-ytNlQx51OnZuf94-143" value="Recepcion" style="swimlane;fontStyle=2;align=center;verticalAlign=top;childLayout=stackLayout;horizontal=1;startSize=26;horizontalStack=0;resizeParent=1;resizeLast=0;collapsible=1;marginBottom=0;rounded=0;shadow=0;strokeWidth=1;fontSize=12;" parent="1" vertex="1">
          <mxGeometry x="1523" y="1133" width="127" height="87" as="geometry">
            <mxRectangle x="230" y="140" width="160" height="26" as="alternateBounds" />
          </mxGeometry>
        </mxCell>
        <mxCell id="oOIH-ytNlQx51OnZuf94-144" value="" style="line;html=1;strokeWidth=1;align=left;verticalAlign=middle;spacingTop=-1;spacingLeft=3;spacingRight=3;rotatable=0;labelPosition=right;points=[];portConstraint=eastwest;fontSize=12;" parent="oOIH-ytNlQx51OnZuf94-143" vertex="1">
          <mxGeometry y="26" width="127" height="8" as="geometry" />
        </mxCell>
        <mxCell id="oOIH-ytNlQx51OnZuf94-145" value="+ notificar()" style="text;align=left;verticalAlign=top;spacingLeft=4;spacingRight=4;overflow=hidden;rotatable=0;points=[[0,0.5],[1,0.5]];portConstraint=eastwest;rounded=0;shadow=0;html=0;fontSize=12;" parent="oOIH-ytNlQx51OnZuf94-143" vertex="1">
          <mxGeometry y="34" width="127" height="26" as="geometry" />
        </mxCell>
        <mxCell id="oOIH-ytNlQx51OnZuf94-146" value="+ toString()" style="text;align=left;verticalAlign=top;spacingLeft=4;spacingRight=4;overflow=hidden;rotatable=0;points=[[0,0.5],[1,0.5]];portConstraint=eastwest;rounded=0;shadow=0;html=0;fontSize=12;" parent="oOIH-ytNlQx51OnZuf94-143" vertex="1">
          <mxGeometry y="60" width="127" height="26" as="geometry" />
        </mxCell>
        <mxCell id="oOIH-ytNlQx51OnZuf94-147" style="edgeStyle=orthogonalEdgeStyle;rounded=0;orthogonalLoop=1;jettySize=auto;html=1;startArrow=diamondThin;startFill=0;" parent="1" source="oOIH-ytNlQx51OnZuf94-151" target="oOIH-ytNlQx51OnZuf94-75" edge="1">
          <mxGeometry relative="1" as="geometry">
            <Array as="points">
              <mxPoint x="940" y="870" />
              <mxPoint x="1090" y="870" />
              <mxPoint x="1090" y="353" />
            </Array>
          </mxGeometry>
        </mxCell>
        <mxCell id="oOIH-ytNlQx51OnZuf94-148" value="1" style="edgeLabel;html=1;align=center;verticalAlign=middle;resizable=0;points=[];" parent="oOIH-ytNlQx51OnZuf94-147" vertex="1" connectable="0">
          <mxGeometry x="-0.5213" y="4" relative="1" as="geometry">
            <mxPoint x="-6" y="184" as="offset" />
          </mxGeometry>
        </mxCell>
        <mxCell id="oOIH-ytNlQx51OnZuf94-149" value="protocolo" style="edgeLabel;html=1;align=center;verticalAlign=middle;resizable=0;points=[];" parent="oOIH-ytNlQx51OnZuf94-147" vertex="1" connectable="0">
          <mxGeometry x="-0.2275" relative="1" as="geometry">
            <mxPoint x="43" y="-530" as="offset" />
          </mxGeometry>
        </mxCell>
        <mxCell id="oOIH-ytNlQx51OnZuf94-150" style="edgeStyle=orthogonalEdgeStyle;rounded=0;orthogonalLoop=1;jettySize=auto;html=1;endArrow=block;endFill=0;" parent="1" source="oOIH-ytNlQx51OnZuf94-151" target="oOIH-ytNlQx51OnZuf94-159" edge="1">
          <mxGeometry relative="1" as="geometry">
            <Array as="points">
              <mxPoint x="970" y="1070" />
              <mxPoint x="1440" y="1070" />
            </Array>
          </mxGeometry>
        </mxCell>
        <mxCell id="oOIH-ytNlQx51OnZuf94-151" value="DeFi" style="swimlane;fontStyle=2;align=center;verticalAlign=top;childLayout=stackLayout;horizontal=1;startSize=26;horizontalStack=0;resizeParent=1;resizeLast=0;collapsible=1;marginBottom=0;rounded=0;shadow=0;strokeWidth=1;fontSize=12;" parent="1" vertex="1">
          <mxGeometry x="873" y="1133" width="134" height="112" as="geometry">
            <mxRectangle x="230" y="140" width="160" height="26" as="alternateBounds" />
          </mxGeometry>
        </mxCell>
        <mxCell id="oOIH-ytNlQx51OnZuf94-152" value="" style="line;html=1;strokeWidth=1;align=left;verticalAlign=middle;spacingTop=-1;spacingLeft=3;spacingRight=3;rotatable=0;labelPosition=right;points=[];portConstraint=eastwest;fontSize=12;" parent="oOIH-ytNlQx51OnZuf94-151" vertex="1">
          <mxGeometry y="26" width="134" height="8" as="geometry" />
        </mxCell>
        <mxCell id="oOIH-ytNlQx51OnZuf94-153" value="+ colocarEnDeFi()" style="text;align=left;verticalAlign=top;spacingLeft=4;spacingRight=4;overflow=hidden;rotatable=0;points=[[0,0.5],[1,0.5]];portConstraint=eastwest;rounded=0;shadow=0;html=0;fontSize=12;" parent="oOIH-ytNlQx51OnZuf94-151" vertex="1">
          <mxGeometry y="34" width="134" height="26" as="geometry" />
        </mxCell>
        <mxCell id="oOIH-ytNlQx51OnZuf94-154" value="+ retirarDeDeFi()" style="text;align=left;verticalAlign=top;spacingLeft=4;spacingRight=4;overflow=hidden;rotatable=0;points=[[0,0.5],[1,0.5]];portConstraint=eastwest;rounded=0;shadow=0;html=0;fontSize=12;" parent="oOIH-ytNlQx51OnZuf94-151" vertex="1">
          <mxGeometry y="60" width="134" height="26" as="geometry" />
        </mxCell>
        <mxCell id="oOIH-ytNlQx51OnZuf94-155" value="+ toString()" style="text;align=left;verticalAlign=top;spacingLeft=4;spacingRight=4;overflow=hidden;rotatable=0;points=[[0,0.5],[1,0.5]];portConstraint=eastwest;rounded=0;shadow=0;html=0;fontSize=12;" parent="oOIH-ytNlQx51OnZuf94-151" vertex="1">
          <mxGeometry y="86" width="134" height="26" as="geometry" />
        </mxCell>
        <mxCell id="oOIH-ytNlQx51OnZuf94-156" style="edgeStyle=orthogonalEdgeStyle;rounded=0;orthogonalLoop=1;jettySize=auto;html=1;startArrow=diamondThin;startFill=0;" parent="1" source="oOIH-ytNlQx51OnZuf94-159" target="oOIH-ytNlQx51OnZuf94-59" edge="1">
          <mxGeometry relative="1" as="geometry">
            <Array as="points">
              <mxPoint x="1520" y="710" />
            </Array>
          </mxGeometry>
        </mxCell>
        <mxCell id="oOIH-ytNlQx51OnZuf94-157" value="1" style="edgeLabel;html=1;align=center;verticalAlign=middle;resizable=0;points=[];" parent="oOIH-ytNlQx51OnZuf94-156" vertex="1" connectable="0">
          <mxGeometry x="-0.7471" y="2" relative="1" as="geometry">
            <mxPoint x="-5" y="9" as="offset" />
          </mxGeometry>
        </mxCell>
        <mxCell id="oOIH-ytNlQx51OnZuf94-158" value="moneda" style="edgeLabel;html=1;align=center;verticalAlign=middle;resizable=0;points=[];" parent="oOIH-ytNlQx51OnZuf94-156" vertex="1" connectable="0">
          <mxGeometry x="0.4843" y="2" relative="1" as="geometry">
            <mxPoint x="16" y="-7" as="offset" />
          </mxGeometry>
        </mxCell>
        <mxCell id="oOIH-ytNlQx51OnZuf94-159" value="&lt;Abstract&gt;&#xa;Transaccion" style="swimlane;fontStyle=2;align=center;verticalAlign=top;childLayout=stackLayout;horizontal=1;startSize=40;horizontalStack=0;resizeParent=1;resizeLast=0;collapsible=1;marginBottom=0;rounded=0;shadow=0;strokeWidth=1;fontSize=12;" parent="1" vertex="1">
          <mxGeometry x="1430" y="875" width="200" height="155" as="geometry">
            <mxRectangle x="230" y="140" width="160" height="26" as="alternateBounds" />
          </mxGeometry>
        </mxCell>
        <mxCell id="oOIH-ytNlQx51OnZuf94-160" value="- cantidad : double" style="text;align=left;verticalAlign=top;spacingLeft=4;spacingRight=4;overflow=hidden;rotatable=0;points=[[0,0.5],[1,0.5]];portConstraint=eastwest;rounded=0;shadow=0;html=0;fontSize=12;" parent="oOIH-ytNlQx51OnZuf94-159" vertex="1">
          <mxGeometry y="40" width="200" height="26" as="geometry" />
        </mxCell>
        <mxCell id="oOIH-ytNlQx51OnZuf94-161" value="- comision : double" style="text;align=left;verticalAlign=top;spacingLeft=4;spacingRight=4;overflow=hidden;rotatable=0;points=[[0,0.5],[1,0.5]];portConstraint=eastwest;rounded=0;shadow=0;html=0;fontSize=12;" parent="oOIH-ytNlQx51OnZuf94-159" vertex="1">
          <mxGeometry y="66" width="200" height="26" as="geometry" />
        </mxCell>
        <mxCell id="oOIH-ytNlQx51OnZuf94-162" value="- codDeTransaccion : String" style="text;align=left;verticalAlign=top;spacingLeft=4;spacingRight=4;overflow=hidden;rotatable=0;points=[[0,0.5],[1,0.5]];portConstraint=eastwest;rounded=0;shadow=0;html=0;fontSize=12;" parent="oOIH-ytNlQx51OnZuf94-159" vertex="1">
          <mxGeometry y="92" width="200" height="26" as="geometry" />
        </mxCell>
        <mxCell id="oOIH-ytNlQx51OnZuf94-163" value="" style="line;html=1;strokeWidth=1;align=left;verticalAlign=middle;spacingTop=-1;spacingLeft=3;spacingRight=3;rotatable=0;labelPosition=right;points=[];portConstraint=eastwest;fontSize=12;" parent="oOIH-ytNlQx51OnZuf94-159" vertex="1">
          <mxGeometry y="118" width="200" height="8" as="geometry" />
        </mxCell>
        <mxCell id="oOIH-ytNlQx51OnZuf94-164" value="+ toString()" style="text;align=left;verticalAlign=top;spacingLeft=4;spacingRight=4;overflow=hidden;rotatable=0;points=[[0,0.5],[1,0.5]];portConstraint=eastwest;rounded=0;shadow=0;html=0;fontSize=12;" parent="oOIH-ytNlQx51OnZuf94-159" vertex="1">
          <mxGeometry y="126" width="200" height="26" as="geometry" />
        </mxCell>
        <mxCell id="oOIH-ytNlQx51OnZuf94-165" style="edgeStyle=orthogonalEdgeStyle;rounded=0;orthogonalLoop=1;jettySize=auto;html=1;endArrow=block;endFill=0;" parent="1" source="oOIH-ytNlQx51OnZuf94-166" target="oOIH-ytNlQx51OnZuf94-59" edge="1">
          <mxGeometry relative="1" as="geometry">
            <Array as="points">
              <mxPoint x="1550" y="750" />
              <mxPoint x="1630" y="750" />
            </Array>
          </mxGeometry>
        </mxCell>
        <mxCell id="oOIH-ytNlQx51OnZuf94-166" value="Bitcoin" style="swimlane;fontStyle=2;align=center;verticalAlign=top;childLayout=stackLayout;horizontal=1;startSize=26;horizontalStack=0;resizeParent=1;resizeLast=0;collapsible=1;marginBottom=0;rounded=0;shadow=0;strokeWidth=1;fontSize=12;" parent="1" vertex="1">
          <mxGeometry x="1530" y="770" width="50" height="30" as="geometry">
            <mxRectangle x="550" y="140" width="160" height="26" as="alternateBounds" />
          </mxGeometry>
        </mxCell>
        <mxCell id="oOIH-ytNlQx51OnZuf94-167" style="edgeStyle=orthogonalEdgeStyle;rounded=0;orthogonalLoop=1;jettySize=auto;html=1;endArrow=block;endFill=0;" parent="1" source="oOIH-ytNlQx51OnZuf94-168" target="oOIH-ytNlQx51OnZuf94-59" edge="1">
          <mxGeometry relative="1" as="geometry">
            <Array as="points">
              <mxPoint x="1621" y="760" />
              <mxPoint x="1660" y="760" />
            </Array>
          </mxGeometry>
        </mxCell>
        <mxCell id="oOIH-ytNlQx51OnZuf94-168" value="Ethereum" style="swimlane;fontStyle=2;align=center;verticalAlign=top;childLayout=stackLayout;horizontal=1;startSize=26;horizontalStack=0;resizeParent=1;resizeLast=0;collapsible=1;marginBottom=0;rounded=0;shadow=0;strokeWidth=1;fontSize=12;" parent="1" vertex="1">
          <mxGeometry x="1590" y="770" width="62" height="30" as="geometry">
            <mxRectangle x="550" y="140" width="160" height="26" as="alternateBounds" />
          </mxGeometry>
        </mxCell>
        <mxCell id="oOIH-ytNlQx51OnZuf94-169" style="edgeStyle=orthogonalEdgeStyle;rounded=0;orthogonalLoop=1;jettySize=auto;html=1;endArrow=block;endFill=0;" parent="1" source="oOIH-ytNlQx51OnZuf94-170" target="oOIH-ytNlQx51OnZuf94-59" edge="1">
          <mxGeometry relative="1" as="geometry" />
        </mxCell>
        <mxCell id="oOIH-ytNlQx51OnZuf94-170" value="USDC" style="swimlane;fontStyle=2;align=center;verticalAlign=top;childLayout=stackLayout;horizontal=1;startSize=26;horizontalStack=0;resizeParent=1;resizeLast=0;collapsible=1;marginBottom=0;rounded=0;shadow=0;strokeWidth=1;fontSize=12;" parent="1" vertex="1">
          <mxGeometry x="1660" y="770" width="40" height="30" as="geometry">
            <mxRectangle x="550" y="140" width="160" height="26" as="alternateBounds" />
          </mxGeometry>
        </mxCell>
        <mxCell id="oOIH-ytNlQx51OnZuf94-171" style="edgeStyle=orthogonalEdgeStyle;rounded=0;orthogonalLoop=1;jettySize=auto;html=1;endArrow=block;endFill=0;" parent="1" source="oOIH-ytNlQx51OnZuf94-172" target="oOIH-ytNlQx51OnZuf94-59" edge="1">
          <mxGeometry relative="1" as="geometry">
            <Array as="points">
              <mxPoint x="1733" y="760" />
              <mxPoint x="1700" y="760" />
            </Array>
          </mxGeometry>
        </mxCell>
        <mxCell id="oOIH-ytNlQx51OnZuf94-172" value="USDT" style="swimlane;fontStyle=2;align=center;verticalAlign=top;childLayout=stackLayout;horizontal=1;startSize=26;horizontalStack=0;resizeParent=1;resizeLast=0;collapsible=1;marginBottom=0;rounded=0;shadow=0;strokeWidth=1;fontSize=12;" parent="1" vertex="1">
          <mxGeometry x="1710" y="770" width="46" height="30" as="geometry">
            <mxRectangle x="550" y="140" width="160" height="26" as="alternateBounds" />
          </mxGeometry>
        </mxCell>
        <mxCell id="oOIH-ytNlQx51OnZuf94-173" style="edgeStyle=orthogonalEdgeStyle;rounded=0;orthogonalLoop=1;jettySize=auto;html=1;endArrow=block;endFill=0;" parent="1" source="oOIH-ytNlQx51OnZuf94-174" target="oOIH-ytNlQx51OnZuf94-59" edge="1">
          <mxGeometry relative="1" as="geometry">
            <Array as="points">
              <mxPoint x="1802" y="750" />
              <mxPoint x="1730" y="750" />
            </Array>
          </mxGeometry>
        </mxCell>
        <mxCell id="oOIH-ytNlQx51OnZuf94-174" value="Dogecoin" style="swimlane;fontStyle=2;align=center;verticalAlign=top;childLayout=stackLayout;horizontal=1;startSize=26;horizontalStack=0;resizeParent=1;resizeLast=0;collapsible=1;marginBottom=0;rounded=0;shadow=0;strokeWidth=1;fontSize=12;" parent="1" vertex="1">
          <mxGeometry x="1770" y="770" width="64" height="29" as="geometry">
            <mxRectangle x="550" y="140" width="160" height="26" as="alternateBounds" />
          </mxGeometry>
        </mxCell>
        <mxCell id="oOIH-ytNlQx51OnZuf94-175" style="edgeStyle=orthogonalEdgeStyle;rounded=0;orthogonalLoop=1;jettySize=auto;html=1;exitX=0;exitY=0.5;exitDx=0;exitDy=0;startArrow=diamondThin;startFill=1;" parent="1" source="oOIH-ytNlQx51OnZuf94-8" target="oOIH-ytNlQx51OnZuf94-20" edge="1">
          <mxGeometry relative="1" as="geometry" />
        </mxCell>
        <mxCell id="oOIH-ytNlQx51OnZuf94-176" style="edgeStyle=orthogonalEdgeStyle;rounded=0;orthogonalLoop=1;jettySize=auto;html=1;startArrow=diamondThin;startFill=1;" parent="1" source="oOIH-ytNlQx51OnZuf94-32" target="oOIH-ytNlQx51OnZuf94-43" edge="1">
          <mxGeometry relative="1" as="geometry">
            <mxPoint x="2224" y="371" as="sourcePoint" />
            <Array as="points">
              <mxPoint x="2500" y="480" />
            </Array>
          </mxGeometry>
        </mxCell>
        <mxCell id="oOIH-ytNlQx51OnZuf94-177" value="1" style="edgeLabel;html=1;align=center;verticalAlign=middle;resizable=0;points=[];" parent="oOIH-ytNlQx51OnZuf94-176" vertex="1" connectable="0">
          <mxGeometry x="-0.7669" relative="1" as="geometry">
            <mxPoint y="-9" as="offset" />
          </mxGeometry>
        </mxCell>
        <mxCell id="oOIH-ytNlQx51OnZuf94-178" value="datosBancarios" style="edgeLabel;html=1;align=center;verticalAlign=middle;resizable=0;points=[];" parent="oOIH-ytNlQx51OnZuf94-176" vertex="1" connectable="0">
          <mxGeometry x="0.4337" relative="1" as="geometry">
            <mxPoint x="-21" y="-8" as="offset" />
          </mxGeometry>
        </mxCell>
        <mxCell id="oOIH-ytNlQx51OnZuf94-179" style="edgeStyle=orthogonalEdgeStyle;rounded=0;orthogonalLoop=1;jettySize=auto;html=1;startArrow=diamondThin;startFill=0;exitX=1;exitY=0.5;exitDx=0;exitDy=0;" parent="1" target="oOIH-ytNlQx51OnZuf94-98" edge="1">
          <mxGeometry relative="1" as="geometry">
            <mxPoint x="2944" y="266" as="sourcePoint" />
            <Array as="points">
              <mxPoint x="2984" y="266" />
              <mxPoint x="2984" y="266" />
            </Array>
          </mxGeometry>
        </mxCell>
        <mxCell id="oOIH-ytNlQx51OnZuf94-180" style="edgeStyle=orthogonalEdgeStyle;rounded=0;orthogonalLoop=1;jettySize=auto;html=1;exitX=0;exitY=0.5;exitDx=0;exitDy=0;startArrow=none;startFill=0;" parent="1" source="oOIH-ytNlQx51OnZuf94-5" target="oOIH-ytNlQx51OnZuf94-75" edge="1">
          <mxGeometry relative="1" as="geometry" />
        </mxCell>
        <mxCell id="oOIH-ytNlQx51OnZuf94-181" style="edgeStyle=orthogonalEdgeStyle;rounded=0;orthogonalLoop=1;jettySize=auto;html=1;startArrow=diamondThin;startFill=1;" parent="1" source="oOIH-ytNlQx51OnZuf94-25" target="oOIH-ytNlQx51OnZuf94-38" edge="1">
          <mxGeometry relative="1" as="geometry">
            <mxPoint x="2204" y="520" as="sourcePoint" />
            <Array as="points">
              <mxPoint x="2330" y="330" />
              <mxPoint x="2330" y="330" />
            </Array>
          </mxGeometry>
        </mxCell>
        <mxCell id="oOIH-ytNlQx51OnZuf94-182" value="1" style="edgeLabel;html=1;align=center;verticalAlign=middle;resizable=0;points=[];" parent="oOIH-ytNlQx51OnZuf94-181" vertex="1" connectable="0">
          <mxGeometry x="-0.7589" relative="1" as="geometry">
            <mxPoint x="5" y="-9" as="offset" />
          </mxGeometry>
        </mxCell>
        <mxCell id="oOIH-ytNlQx51OnZuf94-183" value="usuario" style="edgeLabel;html=1;align=center;verticalAlign=middle;resizable=0;points=[];" parent="oOIH-ytNlQx51OnZuf94-181" vertex="1" connectable="0">
          <mxGeometry x="0.5787" relative="1" as="geometry">
            <mxPoint y="-9" as="offset" />
          </mxGeometry>
        </mxCell>
        <mxCell id="oOIH-ytNlQx51OnZuf94-184" value="Fecha" style="swimlane;fontStyle=2;align=center;verticalAlign=top;childLayout=stackLayout;horizontal=1;startSize=26;horizontalStack=0;resizeParent=1;resizeLast=0;collapsible=1;marginBottom=0;rounded=0;shadow=0;strokeWidth=1;fontSize=12;" parent="1" vertex="1">
          <mxGeometry x="2660" y="810" width="216" height="400" as="geometry">
            <mxRectangle x="230" y="140" width="160" height="26" as="alternateBounds" />
          </mxGeometry>
        </mxCell>
        <mxCell id="oOIH-ytNlQx51OnZuf94-185" value="- año : longint" style="text;align=left;verticalAlign=top;spacingLeft=4;spacingRight=4;overflow=hidden;rotatable=0;points=[[0,0.5],[1,0.5]];portConstraint=eastwest;rounded=0;shadow=0;html=0;fontSize=12;" parent="oOIH-ytNlQx51OnZuf94-184" vertex="1">
          <mxGeometry y="26" width="216" height="26" as="geometry" />
        </mxCell>
        <mxCell id="oOIH-ytNlQx51OnZuf94-186" value="- mes : int" style="text;align=left;verticalAlign=top;spacingLeft=4;spacingRight=4;overflow=hidden;rotatable=0;points=[[0,0.5],[1,0.5]];portConstraint=eastwest;rounded=0;shadow=0;html=0;fontSize=12;" parent="oOIH-ytNlQx51OnZuf94-184" vertex="1">
          <mxGeometry y="52" width="216" height="26" as="geometry" />
        </mxCell>
        <mxCell id="oOIH-ytNlQx51OnZuf94-187" value="- dia : int" style="text;align=left;verticalAlign=top;spacingLeft=4;spacingRight=4;overflow=hidden;rotatable=0;points=[[0,0.5],[1,0.5]];portConstraint=eastwest;rounded=0;shadow=0;html=0;fontSize=12;" parent="oOIH-ytNlQx51OnZuf94-184" vertex="1">
          <mxGeometry y="78" width="216" height="26" as="geometry" />
        </mxCell>
        <mxCell id="oOIH-ytNlQx51OnZuf94-188" value="" style="line;html=1;strokeWidth=1;align=left;verticalAlign=middle;spacingTop=-1;spacingLeft=3;spacingRight=3;rotatable=0;labelPosition=right;points=[];portConstraint=eastwest;fontSize=12;" parent="oOIH-ytNlQx51OnZuf94-184" vertex="1">
          <mxGeometry y="104" width="216" height="8" as="geometry" />
        </mxCell>
        <mxCell id="oOIH-ytNlQx51OnZuf94-189" value="+ getAño()" style="text;align=left;verticalAlign=top;spacingLeft=4;spacingRight=4;overflow=hidden;rotatable=0;points=[[0,0.5],[1,0.5]];portConstraint=eastwest;rounded=0;shadow=0;html=0;fontSize=12;" parent="oOIH-ytNlQx51OnZuf94-184" vertex="1">
          <mxGeometry y="112" width="216" height="26" as="geometry" />
        </mxCell>
        <mxCell id="oOIH-ytNlQx51OnZuf94-190" value="+ setAño()" style="text;align=left;verticalAlign=top;spacingLeft=4;spacingRight=4;overflow=hidden;rotatable=0;points=[[0,0.5],[1,0.5]];portConstraint=eastwest;rounded=0;shadow=0;html=0;fontSize=12;" parent="oOIH-ytNlQx51OnZuf94-184" vertex="1">
          <mxGeometry y="138" width="216" height="26" as="geometry" />
        </mxCell>
        <mxCell id="oOIH-ytNlQx51OnZuf94-191" value="+ getMes()" style="text;align=left;verticalAlign=top;spacingLeft=4;spacingRight=4;overflow=hidden;rotatable=0;points=[[0,0.5],[1,0.5]];portConstraint=eastwest;rounded=0;shadow=0;html=0;fontSize=12;" parent="oOIH-ytNlQx51OnZuf94-184" vertex="1">
          <mxGeometry y="164" width="216" height="26" as="geometry" />
        </mxCell>
        <mxCell id="oOIH-ytNlQx51OnZuf94-192" value="+ setMes()" style="text;align=left;verticalAlign=top;spacingLeft=4;spacingRight=4;overflow=hidden;rotatable=0;points=[[0,0.5],[1,0.5]];portConstraint=eastwest;rounded=0;shadow=0;html=0;fontSize=12;" parent="oOIH-ytNlQx51OnZuf94-184" vertex="1">
          <mxGeometry y="190" width="216" height="26" as="geometry" />
        </mxCell>
        <mxCell id="oOIH-ytNlQx51OnZuf94-193" value="+ getDia()" style="text;align=left;verticalAlign=top;spacingLeft=4;spacingRight=4;overflow=hidden;rotatable=0;points=[[0,0.5],[1,0.5]];portConstraint=eastwest;rounded=0;shadow=0;html=0;fontSize=12;" parent="oOIH-ytNlQx51OnZuf94-184" vertex="1">
          <mxGeometry y="216" width="216" height="26" as="geometry" />
        </mxCell>
        <mxCell id="oOIH-ytNlQx51OnZuf94-194" value="+ setDia()" style="text;align=left;verticalAlign=top;spacingLeft=4;spacingRight=4;overflow=hidden;rotatable=0;points=[[0,0.5],[1,0.5]];portConstraint=eastwest;rounded=0;shadow=0;html=0;fontSize=12;" parent="oOIH-ytNlQx51OnZuf94-184" vertex="1">
          <mxGeometry y="242" width="216" height="26" as="geometry" />
        </mxCell>
        <mxCell id="oOIH-ytNlQx51OnZuf94-195" value="+ getAño()" style="text;align=left;verticalAlign=top;spacingLeft=4;spacingRight=4;overflow=hidden;rotatable=0;points=[[0,0.5],[1,0.5]];portConstraint=eastwest;rounded=0;shadow=0;html=0;fontSize=12;" parent="oOIH-ytNlQx51OnZuf94-184" vertex="1">
          <mxGeometry y="268" width="216" height="26" as="geometry" />
        </mxCell>
        <mxCell id="oOIH-ytNlQx51OnZuf94-196" value="+ setAño()" style="text;align=left;verticalAlign=top;spacingLeft=4;spacingRight=4;overflow=hidden;rotatable=0;points=[[0,0.5],[1,0.5]];portConstraint=eastwest;rounded=0;shadow=0;html=0;fontSize=12;" parent="oOIH-ytNlQx51OnZuf94-184" vertex="1">
          <mxGeometry y="294" width="216" height="26" as="geometry" />
        </mxCell>
        <mxCell id="oOIH-ytNlQx51OnZuf94-197" value="+ esMenorQue(Fecha, Fecha)" style="text;align=left;verticalAlign=top;spacingLeft=4;spacingRight=4;overflow=hidden;rotatable=0;points=[[0,0.5],[1,0.5]];portConstraint=eastwest;rounded=0;shadow=0;html=0;fontSize=12;" parent="oOIH-ytNlQx51OnZuf94-184" vertex="1">
          <mxGeometry y="320" width="216" height="26" as="geometry" />
        </mxCell>
        <mxCell id="oOIH-ytNlQx51OnZuf94-198" value="+ equals(Fecha, Fecha)" style="text;align=left;verticalAlign=top;spacingLeft=4;spacingRight=4;overflow=hidden;rotatable=0;points=[[0,0.5],[1,0.5]];portConstraint=eastwest;rounded=0;shadow=0;html=0;fontSize=12;" parent="oOIH-ytNlQx51OnZuf94-184" vertex="1">
          <mxGeometry y="346" width="216" height="26" as="geometry" />
        </mxCell>
        <mxCell id="oOIH-ytNlQx51OnZuf94-199" value="+ toString()" style="text;align=left;verticalAlign=top;spacingLeft=4;spacingRight=4;overflow=hidden;rotatable=0;points=[[0,0.5],[1,0.5]];portConstraint=eastwest;rounded=0;shadow=0;html=0;fontSize=12;" parent="oOIH-ytNlQx51OnZuf94-184" vertex="1">
          <mxGeometry y="372" width="216" height="26" as="geometry" />
        </mxCell>
        <mxCell id="oOIH-ytNlQx51OnZuf94-200" value="FechaCompleta" style="swimlane;fontStyle=2;align=center;verticalAlign=top;childLayout=stackLayout;horizontal=1;startSize=26;horizontalStack=0;resizeParent=1;resizeLast=0;collapsible=1;marginBottom=0;rounded=0;shadow=0;strokeWidth=1;fontSize=12;" parent="1" vertex="1">
          <mxGeometry x="2364" y="891" width="216" height="320" as="geometry">
            <mxRectangle x="2100" y="870" width="160" height="26" as="alternateBounds" />
          </mxGeometry>
        </mxCell>
        <mxCell id="oOIH-ytNlQx51OnZuf94-201" value="- hora : int" style="text;align=left;verticalAlign=top;spacingLeft=4;spacingRight=4;overflow=hidden;rotatable=0;points=[[0,0.5],[1,0.5]];portConstraint=eastwest;rounded=0;shadow=0;html=0;fontSize=12;" parent="oOIH-ytNlQx51OnZuf94-200" vertex="1">
          <mxGeometry y="26" width="216" height="26" as="geometry" />
        </mxCell>
        <mxCell id="oOIH-ytNlQx51OnZuf94-202" value="- min : int" style="text;align=left;verticalAlign=top;spacingLeft=4;spacingRight=4;overflow=hidden;rotatable=0;points=[[0,0.5],[1,0.5]];portConstraint=eastwest;rounded=0;shadow=0;html=0;fontSize=12;" parent="oOIH-ytNlQx51OnZuf94-200" vertex="1">
          <mxGeometry y="52" width="216" height="26" as="geometry" />
        </mxCell>
        <mxCell id="oOIH-ytNlQx51OnZuf94-203" value="" style="line;html=1;strokeWidth=1;align=left;verticalAlign=middle;spacingTop=-1;spacingLeft=3;spacingRight=3;rotatable=0;labelPosition=right;points=[];portConstraint=eastwest;fontSize=12;" parent="oOIH-ytNlQx51OnZuf94-200" vertex="1">
          <mxGeometry y="78" width="216" height="8" as="geometry" />
        </mxCell>
        <mxCell id="oOIH-ytNlQx51OnZuf94-204" value="+ getHora()" style="text;align=left;verticalAlign=top;spacingLeft=4;spacingRight=4;overflow=hidden;rotatable=0;points=[[0,0.5],[1,0.5]];portConstraint=eastwest;rounded=0;shadow=0;html=0;fontSize=12;" parent="oOIH-ytNlQx51OnZuf94-200" vertex="1">
          <mxGeometry y="86" width="216" height="26" as="geometry" />
        </mxCell>
        <mxCell id="oOIH-ytNlQx51OnZuf94-205" value="+ setHora()" style="text;align=left;verticalAlign=top;spacingLeft=4;spacingRight=4;overflow=hidden;rotatable=0;points=[[0,0.5],[1,0.5]];portConstraint=eastwest;rounded=0;shadow=0;html=0;fontSize=12;" parent="oOIH-ytNlQx51OnZuf94-200" vertex="1">
          <mxGeometry y="112" width="216" height="26" as="geometry" />
        </mxCell>
        <mxCell id="oOIH-ytNlQx51OnZuf94-206" value="+ getMin()" style="text;align=left;verticalAlign=top;spacingLeft=4;spacingRight=4;overflow=hidden;rotatable=0;points=[[0,0.5],[1,0.5]];portConstraint=eastwest;rounded=0;shadow=0;html=0;fontSize=12;" parent="oOIH-ytNlQx51OnZuf94-200" vertex="1">
          <mxGeometry y="138" width="216" height="26" as="geometry" />
        </mxCell>
        <mxCell id="oOIH-ytNlQx51OnZuf94-207" value="+ setMin()" style="text;align=left;verticalAlign=top;spacingLeft=4;spacingRight=4;overflow=hidden;rotatable=0;points=[[0,0.5],[1,0.5]];portConstraint=eastwest;rounded=0;shadow=0;html=0;fontSize=12;" parent="oOIH-ytNlQx51OnZuf94-200" vertex="1">
          <mxGeometry y="164" width="216" height="26" as="geometry" />
        </mxCell>
        <mxCell id="oOIH-ytNlQx51OnZuf94-208" value="+ getFecha()" style="text;align=left;verticalAlign=top;spacingLeft=4;spacingRight=4;overflow=hidden;rotatable=0;points=[[0,0.5],[1,0.5]];portConstraint=eastwest;rounded=0;shadow=0;html=0;fontSize=12;" parent="oOIH-ytNlQx51OnZuf94-200" vertex="1">
          <mxGeometry y="190" width="216" height="26" as="geometry" />
        </mxCell>
        <mxCell id="oOIH-ytNlQx51OnZuf94-209" value="+ setFecha()" style="text;align=left;verticalAlign=top;spacingLeft=4;spacingRight=4;overflow=hidden;rotatable=0;points=[[0,0.5],[1,0.5]];portConstraint=eastwest;rounded=0;shadow=0;html=0;fontSize=12;" parent="oOIH-ytNlQx51OnZuf94-200" vertex="1">
          <mxGeometry y="216" width="216" height="26" as="geometry" />
        </mxCell>
        <mxCell id="oOIH-ytNlQx51OnZuf94-210" value="+ esMenorQue(Fecha, Fecha)" style="text;align=left;verticalAlign=top;spacingLeft=4;spacingRight=4;overflow=hidden;rotatable=0;points=[[0,0.5],[1,0.5]];portConstraint=eastwest;rounded=0;shadow=0;html=0;fontSize=12;" parent="oOIH-ytNlQx51OnZuf94-200" vertex="1">
          <mxGeometry y="242" width="216" height="26" as="geometry" />
        </mxCell>
        <mxCell id="oOIH-ytNlQx51OnZuf94-211" value="+ equals(Fecha, Fecha)" style="text;align=left;verticalAlign=top;spacingLeft=4;spacingRight=4;overflow=hidden;rotatable=0;points=[[0,0.5],[1,0.5]];portConstraint=eastwest;rounded=0;shadow=0;html=0;fontSize=12;" parent="oOIH-ytNlQx51OnZuf94-200" vertex="1">
          <mxGeometry y="268" width="216" height="26" as="geometry" />
        </mxCell>
        <mxCell id="oOIH-ytNlQx51OnZuf94-212" value="+ toString()" style="text;align=left;verticalAlign=top;spacingLeft=4;spacingRight=4;overflow=hidden;rotatable=0;points=[[0,0.5],[1,0.5]];portConstraint=eastwest;rounded=0;shadow=0;html=0;fontSize=12;" parent="oOIH-ytNlQx51OnZuf94-200" vertex="1">
          <mxGeometry y="294" width="216" height="26" as="geometry" />
        </mxCell>
        <mxCell id="oOIH-ytNlQx51OnZuf94-213" style="edgeStyle=orthogonalEdgeStyle;rounded=0;orthogonalLoop=1;jettySize=auto;html=1;endArrow=block;endFill=0;exitX=0.993;exitY=0.276;exitDx=0;exitDy=0;exitPerimeter=0;" parent="1" source="oOIH-ytNlQx51OnZuf94-205" target="oOIH-ytNlQx51OnZuf94-184" edge="1">
          <mxGeometry relative="1" as="geometry">
            <Array as="points" />
          </mxGeometry>
        </mxCell>
        <mxCell id="oOIH-ytNlQx51OnZuf94-214" value="1" style="edgeLabel;html=1;align=center;verticalAlign=middle;resizable=0;points=[];" parent="oOIH-ytNlQx51OnZuf94-213" vertex="1" connectable="0">
          <mxGeometry x="-0.7818" y="3" relative="1" as="geometry">
            <mxPoint x="-1" y="-5" as="offset" />
          </mxGeometry>
        </mxCell>
        <mxCell id="oOIH-ytNlQx51OnZuf94-215" value="fecha" style="edgeLabel;html=1;align=center;verticalAlign=middle;resizable=0;points=[];" parent="oOIH-ytNlQx51OnZuf94-213" vertex="1" connectable="0">
          <mxGeometry x="0.4928" y="-1" relative="1" as="geometry">
            <mxPoint x="-4" y="-10" as="offset" />
          </mxGeometry>
        </mxCell>
        <mxCell id="oOIH-ytNlQx51OnZuf94-216" value="-Tendrian que tener la billetera las transacciones?&#xa;-Tiene que tenerlos metodos que tienen las transacciones&#xa;que tienen a parte del toString&#xa;-Gestor de movientos?&#xa;-Para que hacer bitcoin, eth, etc...&#xa;-Rombitos&#xa;&#xa;" style="text;align=left;verticalAlign=top;spacingLeft=4;spacingRight=4;overflow=hidden;rotatable=0;points=[[0,0.5],[1,0.5]];portConstraint=eastwest;rounded=0;shadow=0;html=0;fontSize=12;" parent="1" vertex="1">
          <mxGeometry x="1410" y="1450" width="320" height="140" as="geometry" />
        </mxCell>
        <mxCell id="oOIH-ytNlQx51OnZuf94-217" value="GestorDeMovimientos" style="swimlane;fontStyle=2;align=center;verticalAlign=top;childLayout=stackLayout;horizontal=1;startSize=26;horizontalStack=0;resizeParent=1;resizeLast=0;collapsible=1;marginBottom=0;rounded=0;shadow=0;strokeWidth=1;fontSize=12;" parent="1" vertex="1">
          <mxGeometry x="3054" y="1080" width="216" height="216" as="geometry">
            <mxRectangle x="550" y="140" width="160" height="26" as="alternateBounds" />
          </mxGeometry>
        </mxCell>
        <mxCell id="oOIH-ytNlQx51OnZuf94-218" value="miBilletera : Billetera" style="text;align=left;verticalAlign=top;spacingLeft=4;spacingRight=4;overflow=hidden;rotatable=0;points=[[0,0.5],[1,0.5]];portConstraint=eastwest;fontSize=12;" parent="oOIH-ytNlQx51OnZuf94-217" vertex="1">
          <mxGeometry y="26" width="216" height="26" as="geometry" />
        </mxCell>
        <mxCell id="oOIH-ytNlQx51OnZuf94-219" value="" style="line;html=1;strokeWidth=1;align=left;verticalAlign=middle;spacingTop=-1;spacingLeft=3;spacingRight=3;rotatable=0;labelPosition=right;points=[];portConstraint=eastwest;fontSize=12;" parent="oOIH-ytNlQx51OnZuf94-217" vertex="1">
          <mxGeometry y="52" width="216" height="8" as="geometry" />
        </mxCell>
        <mxCell id="oOIH-ytNlQx51OnZuf94-220" value="comprarCripto(List&lt;Stock&gt;)" style="text;align=left;verticalAlign=top;spacingLeft=4;spacingRight=4;overflow=hidden;rotatable=0;points=[[0,0.5],[1,0.5]];portConstraint=eastwest;rounded=0;shadow=0;html=0;fontSize=12;" parent="oOIH-ytNlQx51OnZuf94-217" vertex="1">
          <mxGeometry y="60" width="216" height="26" as="geometry" />
        </mxCell>
        <mxCell id="oOIH-ytNlQx51OnZuf94-221" value="venderCripto(List&lt;Stock&gt;)" style="text;align=left;verticalAlign=top;spacingLeft=4;spacingRight=4;overflow=hidden;rotatable=0;points=[[0,0.5],[1,0.5]];portConstraint=eastwest;rounded=0;shadow=0;html=0;fontSize=12;" parent="oOIH-ytNlQx51OnZuf94-217" vertex="1">
          <mxGeometry y="86" width="216" height="26" as="geometry" />
        </mxCell>
        <mxCell id="oOIH-ytNlQx51OnZuf94-222" value="swap(List&lt;Stock&gt;)" style="text;align=left;verticalAlign=top;spacingLeft=4;spacingRight=4;overflow=hidden;rotatable=0;points=[[0,0.5],[1,0.5]];portConstraint=eastwest;rounded=0;shadow=0;html=0;fontSize=12;" parent="oOIH-ytNlQx51OnZuf94-217" vertex="1">
          <mxGeometry y="112" width="216" height="26" as="geometry" />
        </mxCell>
        <mxCell id="oOIH-ytNlQx51OnZuf94-223" value="enviarCripto()" style="text;align=left;verticalAlign=top;spacingLeft=4;spacingRight=4;overflow=hidden;rotatable=0;points=[[0,0.5],[1,0.5]];portConstraint=eastwest;rounded=0;shadow=0;html=0;fontSize=12;" parent="oOIH-ytNlQx51OnZuf94-217" vertex="1">
          <mxGeometry y="138" width="216" height="26" as="geometry" />
        </mxCell>
        <mxCell id="oOIH-ytNlQx51OnZuf94-224" value="recibirCripto()" style="text;align=left;verticalAlign=top;spacingLeft=4;spacingRight=4;overflow=hidden;rotatable=0;points=[[0,0.5],[1,0.5]];portConstraint=eastwest;rounded=0;shadow=0;html=0;fontSize=12;" parent="oOIH-ytNlQx51OnZuf94-217" vertex="1">
          <mxGeometry y="164" width="216" height="26" as="geometry" />
        </mxCell>
        <mxCell id="oOIH-ytNlQx51OnZuf94-225" value="DeFi()" style="text;align=left;verticalAlign=top;spacingLeft=4;spacingRight=4;overflow=hidden;rotatable=0;points=[[0,0.5],[1,0.5]];portConstraint=eastwest;rounded=0;shadow=0;html=0;fontSize=12;" parent="oOIH-ytNlQx51OnZuf94-217" vertex="1">
          <mxGeometry y="190" width="216" height="26" as="geometry" />
        </mxCell>
        <mxCell id="oOIH-ytNlQx51OnZuf94-226" value="miBilletera" style="edgeLabel;html=1;align=center;verticalAlign=middle;resizable=0;points=[];" parent="1" vertex="1" connectable="0">
          <mxGeometry x="2150.002727272727" y="1269.9999999999998" as="geometry" />
        </mxCell>
        <mxCell id="oOIH-ytNlQx51OnZuf94-227" value="miBilletera" style="edgeLabel;html=1;align=center;verticalAlign=middle;resizable=0;points=[];" parent="1" vertex="1" connectable="0">
          <mxGeometry x="2120.002727272727" y="1249.9999999999998" as="geometry" />
        </mxCell>
        <mxCell id="oOIH-ytNlQx51OnZuf94-228" value="miBilletera" style="edgeLabel;html=1;align=center;verticalAlign=middle;resizable=0;points=[];" parent="1" vertex="1" connectable="0">
          <mxGeometry x="2090.002727272727" y="1229.9999999999998" as="geometry" />
        </mxCell>
        <mxCell id="oOIH-ytNlQx51OnZuf94-229" value="monedaFiduciaria" style="edgeLabel;html=1;align=center;verticalAlign=middle;resizable=0;points=[];" parent="1" vertex="1" connectable="0">
          <mxGeometry x="1798.1111111111113" y="650" as="geometry" />
        </mxCell>
        <mxCell id="oOIH-ytNlQx51OnZuf94-230" value="1" style="edgeLabel;html=1;align=center;verticalAlign=middle;resizable=0;points=[];" parent="1" vertex="1" connectable="0">
          <mxGeometry x="1915.000752688172" y="652.0032258064516" as="geometry" />
        </mxCell>
        <mxCell id="oOIH-ytNlQx51OnZuf94-231" style="edgeStyle=orthogonalEdgeStyle;rounded=0;orthogonalLoop=1;jettySize=auto;html=1;exitX=0.5;exitY=0;exitDx=0;exitDy=0;endArrow=block;endFill=0;startArrow=none;startFill=0;" parent="1" source="oOIH-ytNlQx51OnZuf94-234" target="oOIH-ytNlQx51OnZuf94-159" edge="1">
          <mxGeometry relative="1" as="geometry">
            <Array as="points">
              <mxPoint x="1865" y="1070" />
              <mxPoint x="1620" y="1070" />
            </Array>
          </mxGeometry>
        </mxCell>
        <mxCell id="oOIH-ytNlQx51OnZuf94-232" style="edgeStyle=orthogonalEdgeStyle;rounded=0;orthogonalLoop=1;jettySize=auto;html=1;startArrow=diamondThin;startFill=0;" parent="1" target="oOIH-ytNlQx51OnZuf94-54" edge="1">
          <mxGeometry relative="1" as="geometry">
            <mxPoint x="1838.9986075949366" y="1193" as="sourcePoint" />
            <mxPoint x="2053.9253846153842" y="780" as="targetPoint" />
            <Array as="points">
              <mxPoint x="1839" y="1220" />
              <mxPoint x="2090" y="1220" />
            </Array>
          </mxGeometry>
        </mxCell>
        <mxCell id="oOIH-ytNlQx51OnZuf94-233" style="edgeStyle=orthogonalEdgeStyle;rounded=0;orthogonalLoop=1;jettySize=auto;html=1;startArrow=diamondThin;startFill=0;" parent="1" source="oOIH-ytNlQx51OnZuf94-234" target="oOIH-ytNlQx51OnZuf94-43" edge="1">
          <mxGeometry relative="1" as="geometry">
            <mxPoint x="2350" y="830" as="targetPoint" />
            <Array as="points">
              <mxPoint x="2280" y="1163" />
              <mxPoint x="2280" y="600" />
            </Array>
          </mxGeometry>
        </mxCell>
        <mxCell id="oOIH-ytNlQx51OnZuf94-234" value="RetirarFondosBanco" style="swimlane;fontStyle=2;align=center;verticalAlign=top;childLayout=stackLayout;horizontal=1;startSize=26;horizontalStack=0;resizeParent=1;resizeLast=0;collapsible=1;marginBottom=0;rounded=0;shadow=0;strokeWidth=1;fontSize=12;" parent="1" vertex="1">
          <mxGeometry x="1798.11" y="1133" width="134" height="60" as="geometry">
            <mxRectangle x="230" y="140" width="160" height="26" as="alternateBounds" />
          </mxGeometry>
        </mxCell>
        <mxCell id="oOIH-ytNlQx51OnZuf94-235" value="" style="line;html=1;strokeWidth=1;align=left;verticalAlign=middle;spacingTop=-1;spacingLeft=3;spacingRight=3;rotatable=0;labelPosition=right;points=[];portConstraint=eastwest;fontSize=12;" parent="oOIH-ytNlQx51OnZuf94-234" vertex="1">
          <mxGeometry y="26" width="134" height="8" as="geometry" />
        </mxCell>
        <mxCell id="oOIH-ytNlQx51OnZuf94-236" value="+ toString()" style="text;align=left;verticalAlign=top;spacingLeft=4;spacingRight=4;overflow=hidden;rotatable=0;points=[[0,0.5],[1,0.5]];portConstraint=eastwest;rounded=0;shadow=0;html=0;fontSize=12;" parent="oOIH-ytNlQx51OnZuf94-234" vertex="1">
          <mxGeometry y="34" width="134" height="26" as="geometry" />
        </mxCell>
        <mxCell id="oOIH-ytNlQx51OnZuf94-237" value="miBilletera" style="edgeLabel;html=1;align=center;verticalAlign=middle;resizable=0;points=[];" parent="1" vertex="1" connectable="0">
          <mxGeometry x="2060.002727272727" y="1208.9999999999998" as="geometry" />
        </mxCell>
        <mxCell id="oOIH-ytNlQx51OnZuf94-238" value="1" style="edgeLabel;html=1;align=center;verticalAlign=middle;resizable=0;points=[];" parent="1" vertex="1" connectable="0">
          <mxGeometry x="1831.9994414438788" y="1211.0045734636813" as="geometry">
            <mxPoint x="13" as="offset" />
          </mxGeometry>
        </mxCell>
        <mxCell id="oOIH-ytNlQx51OnZuf94-239" style="edgeStyle=orthogonalEdgeStyle;rounded=0;orthogonalLoop=1;jettySize=auto;html=1;startArrow=diamondThin;startFill=0;" parent="1" target="oOIH-ytNlQx51OnZuf94-200" edge="1">
          <mxGeometry relative="1" as="geometry">
            <mxPoint x="1630" y="1010" as="sourcePoint" />
            <Array as="points">
              <mxPoint x="1630" y="1010" />
              <mxPoint x="2398" y="1010" />
            </Array>
          </mxGeometry>
        </mxCell>
        <mxCell id="oOIH-ytNlQx51OnZuf94-240" value="1" style="edgeLabel;html=1;align=center;verticalAlign=middle;resizable=0;points=[];" parent="1" vertex="1" connectable="0">
          <mxGeometry x="1638.9994414438788" y="1001.0045734636813" as="geometry">
            <mxPoint x="13" as="offset" />
          </mxGeometry>
        </mxCell>
        <mxCell id="oOIH-ytNlQx51OnZuf94-241" value="fechaYHora" style="edgeLabel;html=1;align=center;verticalAlign=middle;resizable=0;points=[];" parent="1" vertex="1" connectable="0">
          <mxGeometry x="2314.002727272727" y="1000.9999999999998" as="geometry" />
        </mxCell>
        <mxCell id="oOIH-ytNlQx51OnZuf94-242" value="1" style="edgeLabel;html=1;align=center;verticalAlign=middle;resizable=0;points=[];" parent="1" vertex="1" connectable="0">
          <mxGeometry x="1932.1094414438787" y="1154.0045734636813" as="geometry">
            <mxPoint x="13" as="offset" />
          </mxGeometry>
        </mxCell>
        <mxCell id="oOIH-ytNlQx51OnZuf94-243" value="miBanco" style="edgeLabel;html=1;align=center;verticalAlign=middle;resizable=0;points=[];" parent="1" vertex="1" connectable="0">
          <mxGeometry x="2410.0008641258273" y="590.0012171489128" as="geometry" />
        </mxCell>
        <mxCell id="oOIH-ytNlQx51OnZuf94-244" style="edgeStyle=orthogonalEdgeStyle;rounded=0;orthogonalLoop=1;jettySize=auto;html=1;startArrow=diamondThin;startFill=0;entryX=0.5;entryY=0;entryDx=0;entryDy=0;" parent="1" source="oOIH-ytNlQx51OnZuf94-25" target="oOIH-ytNlQx51OnZuf94-184" edge="1">
          <mxGeometry relative="1" as="geometry">
            <mxPoint x="2224" y="449" as="sourcePoint" />
            <Array as="points">
              <mxPoint x="2580" y="440" />
              <mxPoint x="2580" y="560" />
              <mxPoint x="2768" y="560" />
            </Array>
          </mxGeometry>
        </mxCell>
        <mxCell id="oOIH-ytNlQx51OnZuf94-245" value="1" style="edgeLabel;html=1;align=center;verticalAlign=middle;resizable=0;points=[];" parent="1" vertex="1" connectable="0">
          <mxGeometry x="2253" y="420" as="geometry">
            <mxPoint x="-15" y="5" as="offset" />
          </mxGeometry>
        </mxCell>
        <mxCell id="oOIH-ytNlQx51OnZuf94-246" value="fechaDeNacimiento" style="edgeLabel;html=1;align=center;verticalAlign=middle;resizable=0;points=[];" parent="1" vertex="1" connectable="0">
          <mxGeometry x="2721.092727272727" y="549.9999999999998" as="geometry" />
        </mxCell>
        <mxCell id="oOIH-ytNlQx51OnZuf94-247" style="edgeStyle=orthogonalEdgeStyle;rounded=0;orthogonalLoop=1;jettySize=auto;html=1;" parent="1" source="oOIH-ytNlQx51OnZuf94-54" target="oOIH-ytNlQx51OnZuf94-159" edge="1">
          <mxGeometry relative="1" as="geometry">
            <Array as="points">
              <mxPoint x="2070" y="990" />
            </Array>
          </mxGeometry>
        </mxCell>
        <mxCell id="twxAqXEt6bu0-NI1Yb6s-1" value="TODO:&#xa;    &#xa;&#xa;-Cambiar los statics.&#xa;-Modificar Monedas, y ver como crearlas.&#xa;-En la billetera los metodos.&#xa;-Al hacerse la transferencia congelar los precios.&#xa;&#xa;" style="text;align=left;verticalAlign=top;spacingLeft=4;spacingRight=4;overflow=hidden;rotatable=0;points=[[0,0.5],[1,0.5]];portConstraint=eastwest;rounded=0;shadow=0;html=0;fontSize=12;" vertex="1" parent="1">
          <mxGeometry x="2364" y="1380" width="320" height="140" as="geometry" />
        </mxCell>
      </root>
    </mxGraphModel>
  </diagram>
</mxfile>
